<?xml version="1.0" encoding="UTF-8" standalone="no"?>
<!DOCTYPE svg PUBLIC "-//W3C//DTD SVG 1.1//EN"
 "http://www.w3.org/Graphics/SVG/1.1/DTD/svg11.dtd">
<!-- Generated by graphviz version 2.43.0 (0)
 -->
<!-- Title: main Pages: 1 -->
<svg width="781pt" height="510pt"
 viewBox="0.00 0.00 781.00 510.00" xmlns="http://www.w3.org/2000/svg" xmlns:xlink="http://www.w3.org/1999/xlink">
<g id="graph0" class="graph" transform="scale(1 1) rotate(0) translate(4 506)">
<title>main</title>
<!-- Node1 -->
<g id="Node000001" class="node">
<title>Node1</title>
<g id="a_Node000001"><a xlink:title=" ">
<polygon fill="#999999" stroke="#666666" points="41,-150 0,-150 0,-131 41,-131 41,-150"/>
<text text-anchor="middle" x="20.5" y="-138" font-family="Helvetica,sans-Serif" font-size="10.00">main</text>
</a>
</g>
</g>
<!-- Node2 -->
<g id="Node000002" class="node">
<title>Node2</title>
<g id="a_Node000002"><a xlink:href="Classfile_8c.html#ae4a7da079d90be01c1701b60743fb2bc" target="_top" xlink:title="Libera toda a memória alocada em um ClassFile.">
<polygon fill="white" stroke="#666666" points="161,-169 80,-169 80,-150 161,-150 161,-169"/>
<text text-anchor="middle" x="120.5" y="-157" font-family="Helvetica,sans-Serif" font-size="10.00">free_classfile</text>
</a>
</g>
</g>
<!-- Node1&#45;&gt;Node2 -->
<g id="edge1_Node000001_Node000002" class="edge">
<title>Node1&#45;&gt;Node2</title>
<g id="a_edge1_Node000001_Node000002"><a xlink:title=" ">
<path fill="none" stroke="#63b8ff" d="M41.33,-144.34C49.64,-145.96 59.7,-147.91 69.8,-149.86"/>
<polygon fill="#63b8ff" stroke="#63b8ff" points="69.37,-153.35 79.86,-151.81 70.7,-146.47 69.37,-153.35"/>
</a>
</g>
</g>
<!-- Node5 -->
<g id="Node000005" class="node">
<title>Node5</title>
<g id="a_Node000005"><a xlink:href="reader_8c.html#ac9b5c5d0cb1274d8187768e755b1837c" target="_top" xlink:title="Abre um arquivo .class em modo binário.">
<polygon fill="white" stroke="#666666" points="163.5,-132 77.5,-132 77.5,-113 163.5,-113 163.5,-132"/>
<text text-anchor="middle" x="120.5" y="-120" font-family="Helvetica,sans-Serif" font-size="10.00">open_classfile</text>
</a>
</g>
</g>
<!-- Node1&#45;&gt;Node5 -->
<g id="edge5_Node000001_Node000005" class="edge">
<title>Node1&#45;&gt;Node5</title>
<g id="a_edge5_Node000001_Node000005"><a xlink:title=" ">
<path fill="none" stroke="#63b8ff" d="M41.33,-136.86C48.97,-135.45 58.1,-133.78 67.38,-132.07"/>
<polygon fill="#63b8ff" stroke="#63b8ff" points="68.23,-135.47 77.44,-130.23 66.97,-128.59 68.23,-135.47"/>
</a>
</g>
</g>
<!-- Node6 -->
<g id="Node000006" class="node">
<title>Node6</title>
<g id="a_Node000006"><a xlink:href="reader_8c.html#af10f651434e3008e094eb6d9d9c48f25" target="_top" xlink:title="Lê um arquivo .class inteiro e popula uma estrutura ClassFile.">
<polygon fill="white" stroke="#666666" points="162,-291 79,-291 79,-272 162,-272 162,-291"/>
<text text-anchor="middle" x="120.5" y="-279" font-family="Helvetica,sans-Serif" font-size="10.00">read_classfile</text>
</a>
</g>
</g>
<!-- Node1&#45;&gt;Node6 -->
<g id="edge6_Node000001_Node000006" class="edge">
<title>Node1&#45;&gt;Node6</title>
<g id="a_edge6_Node000001_Node000006"><a xlink:title=" ">
<path fill="none" stroke="#63b8ff" d="M28.24,-150.19C44.46,-173.54 85.91,-233.18 106.91,-263.38"/>
<polygon fill="#63b8ff" stroke="#63b8ff" points="104.14,-265.53 112.72,-271.74 109.88,-261.53 104.14,-265.53"/>
</a>
</g>
</g>
<!-- Node19 -->
<g id="Node000019" class="node">
<title>Node19</title>
<g id="a_Node000019"><a xlink:href="writer_8c.html#ae93e892dfa2ab60858ee0317710677f8" target="_top" xlink:title="Exibe em stdout todas as informações relevantes de um ClassFile.">
<polygon fill="white" stroke="#666666" points="164,-94 77,-94 77,-75 164,-75 164,-94"/>
<text text-anchor="middle" x="120.5" y="-82" font-family="Helvetica,sans-Serif" font-size="10.00">show_classfile</text>
</a>
</g>
</g>
<!-- Node1&#45;&gt;Node19 -->
<g id="edge27_Node000001_Node000019" class="edge">
<title>Node1&#45;&gt;Node19</title>
<g id="a_edge27_Node000001_Node000019"><a xlink:title=" ">
<path fill="none" stroke="#63b8ff" d="M35.32,-130.79C46.36,-123.21 62.35,-112.65 77,-104.5 80.69,-102.45 84.62,-100.41 88.55,-98.46"/>
<polygon fill="#63b8ff" stroke="#63b8ff" points="90.09,-101.6 97.59,-94.12 87.06,-95.29 90.09,-101.6"/>
</a>
</g>
</g>
<!-- Node3 -->
<g id="Node000003" class="node">
<title>Node3</title>
<g id="a_Node000003"><a xlink:href="Classfile_8c.html#adc1c4615212878b4fdfa2c04428e3af4" target="_top" xlink:title="Libera um array de atributos associado a fields, methods ou ao attribute Code.">
<polygon fill="white" stroke="#666666" points="292,-169 203,-169 203,-150 292,-150 292,-169"/>
<text text-anchor="middle" x="247.5" y="-157" font-family="Helvetica,sans-Serif" font-size="10.00">free_attributes</text>
</a>
</g>
</g>
<!-- Node2&#45;&gt;Node3 -->
<g id="edge2_Node000002_Node000003" class="edge">
<title>Node2&#45;&gt;Node3</title>
<g id="a_edge2_Node000002_Node000003"><a xlink:title=" ">
<path fill="none" stroke="#63b8ff" d="M161.05,-159.5C171.13,-159.5 182.14,-159.5 192.8,-159.5"/>
<polygon fill="#63b8ff" stroke="#63b8ff" points="192.87,-163 202.87,-159.5 192.87,-156 192.87,-163"/>
</a>
</g>
</g>
<!-- Node3&#45;&gt;Node3 -->
<g id="edge4_Node000003_Node000003" class="edge">
<title>Node3&#45;&gt;Node3</title>
<g id="a_edge4_Node000003_Node000003"><a xlink:title=" ">
<path fill="none" stroke="#63b8ff" d="M228.08,-169.08C218.63,-177.73 225.11,-187 247.5,-187 261.5,-187 269.27,-183.38 270.83,-178.55"/>
<polygon fill="#63b8ff" stroke="#63b8ff" points="273.97,-176.99 266.92,-169.08 267.5,-179.66 273.97,-176.99"/>
</a>
</g>
</g>
<!-- Node4 -->
<g id="Node000004" class="node">
<title>Node4</title>
<g id="a_Node000004"><a xlink:href="utils_8c.html#a53816f26df4f6332a074bb2dda5fa7e4" target="_top" xlink:title="Converte um nome de atributo (wide&#45;string) para o enum correspondente.">
<polygon fill="white" stroke="#666666" points="610,-208 501,-208 501,-189 610,-189 610,-208"/>
<text text-anchor="middle" x="555.5" y="-196" font-family="Helvetica,sans-Serif" font-size="10.00">convert_attr_name</text>
</a>
</g>
</g>
<!-- Node3&#45;&gt;Node4 -->
<g id="edge3_Node000003_Node000004" class="edge">
<title>Node3&#45;&gt;Node4</title>
<g id="a_edge3_Node000003_Node000004"><a xlink:title=" ">
<path fill="none" stroke="#63b8ff" d="M292.02,-165.05C343.96,-171.67 431.25,-182.79 490.79,-190.38"/>
<polygon fill="#63b8ff" stroke="#63b8ff" points="490.47,-193.87 500.83,-191.66 491.36,-186.92 490.47,-193.87"/>
</a>
</g>
</g>
<!-- Node7 -->
<g id="Node000007" class="node">
<title>Node7</title>
<g id="a_Node000007"><a xlink:href="parser_8c.html#aac2023dd273b325bbbda34ce46ea1a07" target="_top" xlink:title="Faz o parse completo do constant pool a partir do stream do .class.">
<polygon fill="white" stroke="#666666" points="448,-395 331,-395 331,-376 448,-376 448,-395"/>
<text text-anchor="middle" x="389.5" y="-383" font-family="Helvetica,sans-Serif" font-size="10.00">parse_constant_pool</text>
</a>
</g>
</g>
<!-- Node6&#45;&gt;Node7 -->
<g id="edge7_Node000006_Node000007" class="edge">
<title>Node6&#45;&gt;Node7</title>
<g id="a_edge7_Node000006_Node000007"><a xlink:title=" ">
<path fill="none" stroke="#63b8ff" d="M127.67,-291.16C139.4,-308.58 166.71,-344.98 200,-361.5 237.14,-379.94 283.25,-386.05 320.56,-387.51"/>
<polygon fill="#63b8ff" stroke="#63b8ff" points="320.75,-391.01 330.84,-387.8 320.94,-384.02 320.75,-391.01"/>
</a>
</g>
</g>
<!-- Node13 -->
<g id="Node000013" class="node">
<title>Node13</title>
<g id="a_Node000013"><a xlink:href="reader_8c.html#a68af7c01695b2d6b6533a5f68672df75" target="_top" xlink:title="Lê 2 bytes (u2) do arquivo em ordem big&#45;endian.">
<polygon fill="white" stroke="#666666" points="583.5,-268 527.5,-268 527.5,-249 583.5,-249 583.5,-268"/>
<text text-anchor="middle" x="555.5" y="-256" font-family="Helvetica,sans-Serif" font-size="10.00">read_u2</text>
</a>
</g>
</g>
<!-- Node6&#45;&gt;Node13 -->
<g id="edge25_Node000006_Node000013" class="edge">
<title>Node6&#45;&gt;Node13</title>
<g id="a_edge25_Node000006_Node000013"><a xlink:title=" ">
<path fill="none" stroke="#63b8ff" d="M162.22,-272.04C174.36,-269.25 187.71,-266.22 200,-263.5 308.3,-239.51 337.7,-223.73 448,-235.5 471.33,-237.99 497.06,-243.47 517.38,-248.45"/>
<polygon fill="#63b8ff" stroke="#63b8ff" points="516.63,-251.87 527.18,-250.92 518.34,-245.08 516.63,-251.87"/>
</a>
</g>
</g>
<!-- Node15 -->
<g id="Node000015" class="node">
<title>Node15</title>
<g id="a_Node000015"><a xlink:href="reader_8c.html#aecc14900440f32e9507ed9ecf45ad2d7" target="_top" xlink:title="Lê 4 bytes (u4) do arquivo em ordem big&#45;endian.">
<polygon fill="white" stroke="#666666" points="583.5,-315 527.5,-315 527.5,-296 583.5,-296 583.5,-315"/>
<text text-anchor="middle" x="555.5" y="-303" font-family="Helvetica,sans-Serif" font-size="10.00">read_u4</text>
</a>
</g>
</g>
<!-- Node6&#45;&gt;Node15 -->
<g id="edge26_Node000006_Node000015" class="edge">
<title>Node6&#45;&gt;Node15</title>
<g id="a_edge26_Node000006_Node000015"><a xlink:title=" ">
<path fill="none" stroke="#63b8ff" d="M154.84,-291.07C168.69,-294.65 185.01,-298.36 200,-300.5 314.58,-316.84 452.09,-311.87 517.03,-308.08"/>
<polygon fill="#63b8ff" stroke="#63b8ff" points="517.42,-311.57 527.19,-307.47 516.99,-304.58 517.42,-311.57"/>
</a>
</g>
</g>
<!-- Node17 -->
<g id="Node000017" class="node">
<title>Node17</title>
<g id="a_Node000017"><a xlink:href="reader_8c.html#a54ff57168c90704e4ba29ccdd82038ba" target="_top" xlink:title="Lê uma lista de member_info (fields ou methods) do arquivo e preenche o array.">
<polygon fill="white" stroke="#666666" points="290,-291 205,-291 205,-272 290,-272 290,-291"/>
<text text-anchor="middle" x="247.5" y="-279" font-family="Helvetica,sans-Serif" font-size="10.00">read_member</text>
</a>
</g>
</g>
<!-- Node6&#45;&gt;Node17 -->
<g id="edge18_Node000006_Node000017" class="edge">
<title>Node6&#45;&gt;Node17</title>
<g id="a_edge18_Node000006_Node000017"><a xlink:title=" ">
<path fill="none" stroke="#63b8ff" d="M162.08,-281.5C172.46,-281.5 183.75,-281.5 194.61,-281.5"/>
<polygon fill="#63b8ff" stroke="#63b8ff" points="194.83,-285 204.83,-281.5 194.83,-278 194.83,-285"/>
</a>
</g>
</g>
<!-- Node8 -->
<g id="Node000008" class="node">
<title>Node8</title>
<g id="a_Node000008"><a xlink:href="parser_8c.html#abbf6db13bd799587ea390a308a6719a4" target="_top" xlink:title="Reconstrói um double (IEEE 754, 64 bits) a partir de duas palavras u4.">
<polygon fill="white" stroke="#666666" points="616.5,-352 494.5,-352 494.5,-333 616.5,-333 616.5,-352"/>
<text text-anchor="middle" x="555.5" y="-340" font-family="Helvetica,sans-Serif" font-size="10.00">decode_double_bytes</text>
</a>
</g>
</g>
<!-- Node7&#45;&gt;Node8 -->
<g id="edge8_Node000007_Node000008" class="edge">
<title>Node7&#45;&gt;Node8</title>
<g id="a_edge8_Node000007_Node000008"><a xlink:title=" ">
<path fill="none" stroke="#63b8ff" d="M426.9,-375.96C450.89,-369.67 482.52,-361.37 508.29,-354.62"/>
<polygon fill="#63b8ff" stroke="#63b8ff" points="509.42,-357.94 518.2,-352.02 507.64,-351.17 509.42,-357.94"/>
</a>
</g>
</g>
<!-- Node9 -->
<g id="Node000009" class="node">
<title>Node9</title>
<g id="a_Node000009"><a xlink:href="parser_8c.html#a637d67ba8a2673e42cabf3ac17494309" target="_top" xlink:title="Combina duas palavras (alta/baixa) em um valor long (64 bits).">
<polygon fill="white" stroke="#666666" points="773,-371 663,-371 663,-352 773,-352 773,-371"/>
<text text-anchor="middle" x="718" y="-359" font-family="Helvetica,sans-Serif" font-size="10.00">decode_long_bytes</text>
</a>
</g>
</g>
<!-- Node7&#45;&gt;Node9 -->
<g id="edge11_Node000007_Node000009" class="edge">
<title>Node7&#45;&gt;Node9</title>
<g id="a_edge11_Node000007_Node000009"><a xlink:title=" ">
<path fill="none" stroke="#63b8ff" d="M448.12,-381.26C505.49,-377.05 593.36,-370.59 652.9,-366.21"/>
<polygon fill="#63b8ff" stroke="#63b8ff" points="653.22,-369.7 662.94,-365.47 652.71,-362.72 653.22,-369.7"/>
</a>
</g>
</g>
<!-- Node10 -->
<g id="Node000010" class="node">
<title>Node10</title>
<g id="a_Node000010"><a xlink:href="parser_8c.html#ad745f15a0a7e7e3620cf4729a969810d" target="_top" xlink:title="Reconstrói um float (IEEE 754) a partir de 4 bytes (u4).">
<polygon fill="white" stroke="#666666" points="611,-502 500,-502 500,-483 611,-483 611,-502"/>
<text text-anchor="middle" x="555.5" y="-490" font-family="Helvetica,sans-Serif" font-size="10.00">decode_float_bytes</text>
</a>
</g>
</g>
<!-- Node7&#45;&gt;Node10 -->
<g id="edge10_Node000007_Node000010" class="edge">
<title>Node7&#45;&gt;Node10</title>
<g id="a_edge10_Node000007_Node000010"><a xlink:title=" ">
<path fill="none" stroke="#63b8ff" d="M397.82,-395.21C412.23,-413.61 446.15,-453.56 484,-474.5 487.29,-476.32 490.76,-477.96 494.34,-479.44"/>
<polygon fill="#63b8ff" stroke="#63b8ff" points="493.38,-482.81 503.98,-482.98 495.8,-476.24 493.38,-482.81"/>
</a>
</g>
</g>
<!-- Node11 -->
<g id="Node000011" class="node">
<title>Node11</title>
<g id="a_Node000011"><a xlink:href="parser_8c.html#aa81b86607105dcb441904d8c3847173e" target="_top" xlink:title="Decodifica uma string em Modified UTF&#45;8 para wchar_t*.">
<polygon fill="white" stroke="#666666" points="627,-465 484,-465 484,-446 627,-446 627,-465"/>
<text text-anchor="middle" x="555.5" y="-453" font-family="Helvetica,sans-Serif" font-size="10.00">decode_modified_utf8_str</text>
</a>
</g>
</g>
<!-- Node7&#45;&gt;Node11 -->
<g id="edge12_Node000007_Node000011" class="edge">
<title>Node7&#45;&gt;Node11</title>
<g id="a_edge12_Node000007_Node000011"><a xlink:title=" ">
<path fill="none" stroke="#63b8ff" d="M404.82,-395.01C422.69,-406.5 454.49,-425.76 484,-437.5 489.13,-439.54 494.57,-441.41 500.06,-443.11"/>
<polygon fill="#63b8ff" stroke="#63b8ff" points="499.36,-446.55 509.94,-445.98 501.31,-439.83 499.36,-446.55"/>
</a>
</g>
</g>
<!-- Node12 -->
<g id="Node000012" class="node">
<title>Node12</title>
<g id="a_Node000012"><a xlink:href="reader_8c.html#a48d093e8c8a3ab92d7c54fbfd2f4f852" target="_top" xlink:title="Lê 1 byte (u1) do arquivo.">
<polygon fill="white" stroke="#666666" points="583.5,-428 527.5,-428 527.5,-409 583.5,-409 583.5,-428"/>
<text text-anchor="middle" x="555.5" y="-416" font-family="Helvetica,sans-Serif" font-size="10.00">read_u1</text>
</a>
</g>
</g>
<!-- Node7&#45;&gt;Node12 -->
<g id="edge13_Node000007_Node000012" class="edge">
<title>Node7&#45;&gt;Node12</title>
<g id="a_edge13_Node000007_Node000012"><a xlink:title=" ">
<path fill="none" stroke="#63b8ff" d="M437.94,-395.04C463.15,-400.12 493.71,-406.27 517.2,-411"/>
<polygon fill="#63b8ff" stroke="#63b8ff" points="516.64,-414.45 527.13,-412.99 518.02,-407.59 516.64,-414.45"/>
</a>
</g>
</g>
<!-- Node7&#45;&gt;Node13 -->
<g id="edge14_Node000007_Node000013" class="edge">
<title>Node7&#45;&gt;Node13</title>
<g id="a_edge14_Node000007_Node000013"><a xlink:title=" ">
<path fill="none" stroke="#63b8ff" d="M399.56,-375.79C422.06,-351.7 479.03,-290.9 484,-287.5 494.23,-280.51 506.4,-274.76 517.72,-270.27"/>
<polygon fill="#63b8ff" stroke="#63b8ff" points="519.25,-273.43 527.39,-266.65 516.8,-266.88 519.25,-273.43"/>
</a>
</g>
</g>
<!-- Node7&#45;&gt;Node15 -->
<g id="edge16_Node000007_Node000015" class="edge">
<title>Node7&#45;&gt;Node15</title>
<g id="a_edge16_Node000007_Node000015"><a xlink:title=" ">
<path fill="none" stroke="#63b8ff" d="M419.74,-375.94C429.18,-372.18 439.41,-367.34 448,-361.5 466.97,-348.6 464.22,-336.12 484,-324.5 494.13,-318.55 506.15,-314.42 517.38,-311.57"/>
<polygon fill="#63b8ff" stroke="#63b8ff" points="518.42,-314.92 527.39,-309.3 516.87,-308.1 518.42,-314.92"/>
</a>
</g>
</g>
<!-- Node8&#45;&gt;Node9 -->
<g id="edge9_Node000008_Node000009" class="edge">
<title>Node8&#45;&gt;Node9</title>
<g id="a_edge9_Node000008_Node000009"><a xlink:title=" ">
<path fill="none" stroke="#63b8ff" d="M616.72,-349.63C628.42,-351.01 640.72,-352.47 652.54,-353.87"/>
<polygon fill="#63b8ff" stroke="#63b8ff" points="652.44,-357.38 662.79,-355.08 653.27,-350.43 652.44,-357.38"/>
</a>
</g>
</g>
<!-- Node14 -->
<g id="Node000014" class="node">
<title>Node14</title>
<g id="a_Node000014"><a xlink:href="utils_8c.html#a599ab19da5360c7d96d84b862b612304" target="_top" xlink:title="Inverte os dois bytes de um valor de 16 bits.">
<polygon fill="white" stroke="#666666" points="745,-268 691,-268 691,-249 745,-249 745,-268"/>
<text text-anchor="middle" x="718" y="-256" font-family="Helvetica,sans-Serif" font-size="10.00">u2swap</text>
</a>
</g>
</g>
<!-- Node13&#45;&gt;Node14 -->
<g id="edge15_Node000013_Node000014" class="edge">
<title>Node13&#45;&gt;Node14</title>
<g id="a_edge15_Node000013_Node000014"><a xlink:title=" ">
<path fill="none" stroke="#63b8ff" d="M583.73,-258.5C610.41,-258.5 651.25,-258.5 680.69,-258.5"/>
<polygon fill="#63b8ff" stroke="#63b8ff" points="680.97,-262 690.97,-258.5 680.97,-255 680.97,-262"/>
</a>
</g>
</g>
<!-- Node16 -->
<g id="Node000016" class="node">
<title>Node16</title>
<g id="a_Node000016"><a xlink:href="utils_8c.html#abfc4df4feae08f92185e8001e544025b" target="_top" xlink:title="Inverte a ordem dos quatro bytes de um valor de 32 bits.">
<polygon fill="white" stroke="#666666" points="745,-315 691,-315 691,-296 745,-296 745,-315"/>
<text text-anchor="middle" x="718" y="-303" font-family="Helvetica,sans-Serif" font-size="10.00">u4swap</text>
</a>
</g>
</g>
<!-- Node15&#45;&gt;Node16 -->
<g id="edge17_Node000015_Node000016" class="edge">
<title>Node15&#45;&gt;Node16</title>
<g id="a_edge17_Node000015_Node000016"><a xlink:title=" ">
<path fill="none" stroke="#63b8ff" d="M583.73,-305.5C610.41,-305.5 651.25,-305.5 680.69,-305.5"/>
<polygon fill="#63b8ff" stroke="#63b8ff" points="680.97,-309 690.97,-305.5 680.97,-302 680.97,-309"/>
</a>
</g>
</g>
<!-- Node17&#45;&gt;Node13 -->
<g id="edge24_Node000017_Node000013" class="edge">
<title>Node17&#45;&gt;Node13</title>
<g id="a_edge24_Node000017_Node000013"><a xlink:title=" ">
<path fill="none" stroke="#63b8ff" d="M290.4,-286.96C303.39,-288.42 317.76,-289.78 331,-290.5 382.92,-293.32 396.55,-298.06 448,-290.5 472.79,-286.86 499.81,-278.68 520.43,-271.51"/>
<polygon fill="#63b8ff" stroke="#63b8ff" points="521.76,-274.75 530,-268.09 519.41,-268.16 521.76,-274.75"/>
</a>
</g>
</g>
<!-- Node18 -->
<g id="Node000018" class="node">
<title>Node18</title>
<g id="a_Node000018"><a xlink:href="reader_8c.html#add579a1b0c99c6c5be558f20ba702a1c" target="_top" xlink:title="Lê um array de atributos a partir do arquivo e preenche a estrutura attribute.">
<polygon fill="white" stroke="#666666" points="435,-263 344,-263 344,-244 435,-244 435,-263"/>
<text text-anchor="middle" x="389.5" y="-251" font-family="Helvetica,sans-Serif" font-size="10.00">read_attributes</text>
</a>
</g>
</g>
<!-- Node17&#45;&gt;Node18 -->
<g id="edge19_Node000017_Node000018" class="edge">
<title>Node17&#45;&gt;Node18</title>
<g id="a_edge19_Node000017_Node000018"><a xlink:title=" ">
<path fill="none" stroke="#63b8ff" d="M290.13,-273.17C303.88,-270.42 319.39,-267.32 333.96,-264.41"/>
<polygon fill="#63b8ff" stroke="#63b8ff" points="334.75,-267.82 343.86,-262.43 333.37,-260.96 334.75,-267.82"/>
</a>
</g>
</g>
<!-- Node18&#45;&gt;Node4 -->
<g id="edge20_Node000018_Node000004" class="edge">
<title>Node18&#45;&gt;Node4</title>
<g id="a_edge20_Node000018_Node000004"><a xlink:title=" ">
<path fill="none" stroke="#63b8ff" d="M419.07,-243.92C446.03,-234.88 486.64,-221.26 516.36,-211.29"/>
<polygon fill="#63b8ff" stroke="#63b8ff" points="517.62,-214.56 525.99,-208.06 515.39,-207.92 517.62,-214.56"/>
</a>
</g>
</g>
<!-- Node18&#45;&gt;Node13 -->
<g id="edge22_Node000018_Node000013" class="edge">
<title>Node18&#45;&gt;Node13</title>
<g id="a_edge22_Node000018_Node000013"><a xlink:title=" ">
<path fill="none" stroke="#63b8ff" d="M435.31,-254.87C460.92,-255.65 492.67,-256.62 516.96,-257.36"/>
<polygon fill="#63b8ff" stroke="#63b8ff" points="517.11,-260.86 527.21,-257.67 517.32,-253.86 517.11,-260.86"/>
</a>
</g>
</g>
<!-- Node18&#45;&gt;Node15 -->
<g id="edge23_Node000018_Node000015" class="edge">
<title>Node18&#45;&gt;Node15</title>
<g id="a_edge23_Node000018_Node000015"><a xlink:title=" ">
<path fill="none" stroke="#63b8ff" d="M420.58,-263.04C447.88,-271.69 488.21,-284.48 517.48,-293.76"/>
<polygon fill="#63b8ff" stroke="#63b8ff" points="516.74,-297.2 527.33,-296.89 518.86,-290.53 516.74,-297.2"/>
</a>
</g>
</g>
<!-- Node18&#45;&gt;Node18 -->
<g id="edge21_Node000018_Node000018" class="edge">
<title>Node18&#45;&gt;Node18</title>
<g id="a_edge21_Node000018_Node000018"><a xlink:title=" ">
<path fill="none" stroke="#63b8ff" d="M367.61,-263.08C356.97,-271.73 364.26,-281 389.5,-281 405.67,-281 414.47,-277.2 415.91,-272.19"/>
<polygon fill="#63b8ff" stroke="#63b8ff" points="418.97,-270.48 411.39,-263.08 412.7,-273.6 418.97,-270.48"/>
</a>
</g>
</g>
<!-- Node20 -->
<g id="Node000020" class="node">
<title>Node20</title>
<g id="a_Node000020"><a xlink:href="utils_8c.html#a54e5e04c761648da1cbda196724ffd37" target="_top" xlink:title="Converte flags da JVM (u2) em uma string legível.">
<polygon fill="white" stroke="#666666" points="425.5,-56 353.5,-56 353.5,-37 425.5,-37 425.5,-56"/>
<text text-anchor="middle" x="389.5" y="-44" font-family="Helvetica,sans-Serif" font-size="10.00">parse_flags</text>
</a>
</g>
</g>
<!-- Node19&#45;&gt;Node20 -->
<g id="edge28_Node000019_Node000020" class="edge">
<title>Node19&#45;&gt;Node20</title>
<g id="a_edge28_Node000019_Node000020"><a xlink:title=" ">
<path fill="none" stroke="#63b8ff" d="M164.07,-80.93C199.28,-77.72 250.54,-72.44 295,-65.5 310.69,-63.05 327.74,-59.77 342.94,-56.63"/>
<polygon fill="#63b8ff" stroke="#63b8ff" points="344.05,-59.97 353.12,-54.48 342.61,-53.12 344.05,-59.97"/>
</a>
</g>
</g>
<!-- Node21 -->
<g id="Node000021" class="node">
<title>Node21</title>
<g id="a_Node000021"><a xlink:href="cp_2writer_8c.html#a7e37d5fb2c6ad99c587bac7e9f17b536" target="_top" xlink:title="Exibe todas as entradas do constant pool.">
<polygon fill="white" stroke="#666666" points="295,-132 200,-132 200,-113 295,-113 295,-132"/>
<text text-anchor="middle" x="247.5" y="-120" font-family="Helvetica,sans-Serif" font-size="10.00">show_constants</text>
</a>
</g>
</g>
<!-- Node19&#45;&gt;Node21 -->
<g id="edge29_Node000019_Node000021" class="edge">
<title>Node19&#45;&gt;Node21</title>
<g id="a_edge29_Node000019_Node000021"><a xlink:title=" ">
<path fill="none" stroke="#63b8ff" d="M153.04,-94.09C168.88,-98.9 188.27,-104.8 205.28,-109.97"/>
<polygon fill="#63b8ff" stroke="#63b8ff" points="204.38,-113.35 214.97,-112.91 206.42,-106.66 204.38,-113.35"/>
</a>
</g>
</g>
<!-- Node23 -->
<g id="Node000023" class="node">
<title>Node23</title>
<g id="a_Node000023"><a xlink:href="fields_8c.html#a6290db4646e6000690c489c000103886" target="_top" xlink:title="Exibe os campos de uma estrutura ClassFile.">
<polygon fill="white" stroke="#666666" points="284.5,-56 210.5,-56 210.5,-37 284.5,-37 284.5,-56"/>
<text text-anchor="middle" x="247.5" y="-44" font-family="Helvetica,sans-Serif" font-size="10.00">show_fields</text>
</a>
</g>
</g>
<!-- Node19&#45;&gt;Node23 -->
<g id="edge31_Node000019_Node000023" class="edge">
<title>Node19&#45;&gt;Node23</title>
<g id="a_edge31_Node000019_Node000023"><a xlink:title=" ">
<path fill="none" stroke="#63b8ff" d="M153.04,-74.91C168.88,-70.1 188.27,-64.2 205.28,-59.03"/>
<polygon fill="#63b8ff" stroke="#63b8ff" points="206.42,-62.34 214.97,-56.09 204.38,-55.65 206.42,-62.34"/>
</a>
</g>
</g>
<!-- Node25 -->
<g id="Node000025" class="node">
<title>Node25</title>
<g id="a_Node000025"><a xlink:href="methods_8c.html#ac96be5d5338c1d8c222fe777b9f754e7" target="_top" xlink:title="Exibe os métodos de uma estrutura ClassFile.">
<polygon fill="white" stroke="#666666" points="292.5,-19 202.5,-19 202.5,0 292.5,0 292.5,-19"/>
<text text-anchor="middle" x="247.5" y="-7" font-family="Helvetica,sans-Serif" font-size="10.00">show_methods</text>
</a>
</g>
</g>
<!-- Node19&#45;&gt;Node25 -->
<g id="edge34_Node000019_Node000025" class="edge">
<title>Node19&#45;&gt;Node25</title>
<g id="a_edge34_Node000019_Node000025"><a xlink:title=" ">
<path fill="none" stroke="#63b8ff" d="M132.84,-74.8C147.56,-62.57 174.41,-41.44 200,-27.5 202.89,-25.93 205.94,-24.42 209.05,-23.01"/>
<polygon fill="#63b8ff" stroke="#63b8ff" points="210.6,-26.15 218.43,-19.02 207.86,-19.71 210.6,-26.15"/>
</a>
</g>
</g>
<!-- Node22 -->
<g id="Node000022" class="node">
<title>Node22</title>
<g id="a_Node000022"><a xlink:href="utils_8c.html#ad84b8b6f6642d15fbdbd161044c8533f" target="_top" xlink:title="Retorna o número de dígitos de um inteiro positivo.">
<polygon fill="white" stroke="#666666" points="425,-132 354,-132 354,-113 425,-113 425,-132"/>
<text text-anchor="middle" x="389.5" y="-120" font-family="Helvetica,sans-Serif" font-size="10.00">num_digits</text>
</a>
</g>
</g>
<!-- Node21&#45;&gt;Node22 -->
<g id="edge30_Node000021_Node000022" class="edge">
<title>Node21&#45;&gt;Node22</title>
<g id="a_edge30_Node000021_Node000022"><a xlink:title=" ">
<path fill="none" stroke="#63b8ff" d="M295.12,-122.5C310.63,-122.5 327.87,-122.5 343.27,-122.5"/>
<polygon fill="#63b8ff" stroke="#63b8ff" points="343.6,-126 353.6,-122.5 343.6,-119 343.6,-126"/>
</a>
</g>
</g>
<!-- Node23&#45;&gt;Node20 -->
<g id="edge33_Node000023_Node000020" class="edge">
<title>Node23&#45;&gt;Node20</title>
<g id="a_edge33_Node000023_Node000020"><a xlink:title=" ">
<path fill="none" stroke="#63b8ff" d="M284.55,-46.5C302.33,-46.5 323.95,-46.5 342.87,-46.5"/>
<polygon fill="#63b8ff" stroke="#63b8ff" points="343.05,-50 353.05,-46.5 343.05,-43 343.05,-50"/>
</a>
</g>
</g>
<!-- Node24 -->
<g id="Node000024" class="node">
<title>Node24</title>
<g id="a_Node000024"><a xlink:href="utils_8c.html#a2da22ca95cc96ff610400450f1723cb2" target="_top" xlink:title="Converte descritores da JVM para representações legíveis.">
<polygon fill="white" stroke="#666666" points="438.5,-19 340.5,-19 340.5,0 438.5,0 438.5,-19"/>
<text text-anchor="middle" x="389.5" y="-7" font-family="Helvetica,sans-Serif" font-size="10.00">parse_descriptor</text>
</a>
</g>
</g>
<!-- Node23&#45;&gt;Node24 -->
<g id="edge32_Node000023_Node000024" class="edge">
<title>Node23&#45;&gt;Node24</title>
<g id="a_edge32_Node000023_Node000024"><a xlink:title=" ">
<path fill="none" stroke="#63b8ff" d="M284.55,-36.97C302.13,-32.33 323.48,-26.68 342.25,-21.72"/>
<polygon fill="#63b8ff" stroke="#63b8ff" points="343.31,-25.06 352.08,-19.12 341.52,-18.3 343.31,-25.06"/>
</a>
</g>
</g>
<!-- Node25&#45;&gt;Node20 -->
<g id="edge36_Node000025_Node000020" class="edge">
<title>Node25&#45;&gt;Node20</title>
<g id="a_edge36_Node000025_Node000020"><a xlink:title=" ">
<path fill="none" stroke="#63b8ff" d="M284.55,-19.03C302.41,-23.75 324.15,-29.49 343.13,-34.51"/>
<polygon fill="#63b8ff" stroke="#63b8ff" points="342.49,-37.96 353.05,-37.13 344.28,-31.19 342.49,-37.96"/>
</a>
</g>
</g>
<!-- Node25&#45;&gt;Node24 -->
<g id="edge35_Node000025_Node000024" class="edge">
<title>Node25&#45;&gt;Node24</title>
<g id="a_edge35_Node000025_Node000024"><a xlink:title=" ">
<path fill="none" stroke="#63b8ff" d="M292.8,-9.5C304.56,-9.5 317.45,-9.5 329.86,-9.5"/>
<polygon fill="#63b8ff" stroke="#63b8ff" points="330.12,-13 340.12,-9.5 330.12,-6 330.12,-13"/>
</a>
</g>
</g>
</g>
</svg>
