<?xml version="1.0" encoding="UTF-8" standalone="no"?>
<!DOCTYPE svg PUBLIC "-//W3C//DTD SVG 1.1//EN"
 "http://www.w3.org/Graphics/SVG/1.1/DTD/svg11.dtd">
<!-- Generated by graphviz version 2.43.0 (0)
 -->
<!-- Title: include/types/member.h Pages: 1 -->
<svg width="886pt" height="247pt"
 viewBox="0.00 0.00 886.33 247.00" xmlns="http://www.w3.org/2000/svg" xmlns:xlink="http://www.w3.org/1999/xlink">
<g id="graph0" class="graph" transform="scale(1 1) rotate(0) translate(4 243)">
<title>include/types/member.h</title>
<!-- Node1 -->
<g id="Node000001" class="node">
<title>Node1</title>
<g id="a_Node000001"><a xlink:title="Estruturas relacionadas a membros (fields e methods) do ClassFile.">
<polygon fill="#999999" stroke="#666666" points="434.83,-239 300.83,-239 300.83,-220 434.83,-220 434.83,-239"/>
<text text-anchor="middle" x="367.83" y="-227" font-family="Helvetica,sans-Serif" font-size="10.00">include/types/member.h</text>
</a>
</g>
</g>
<!-- Node2 -->
<g id="Node000002" class="node">
<title>Node2</title>
<g id="a_Node000002"><a xlink:href="Classfile_8h.html" target="_top" xlink:title="Estruturas e funções para representar e liberar um arquivo .class Java (ClassFile).">
<polygon fill="white" stroke="#666666" points="360.33,-129 255.33,-129 255.33,-110 360.33,-110 360.33,-129"/>
<text text-anchor="middle" x="307.83" y="-117" font-family="Helvetica,sans-Serif" font-size="10.00">include/Classfile.h</text>
</a>
</g>
</g>
<!-- Node1&#45;&gt;Node2 -->
<g id="edge1_Node000001_Node000002" class="edge">
<title>Node1&#45;&gt;Node2</title>
<g id="a_edge1_Node000001_Node000002"><a xlink:title=" ">
<path fill="none" stroke="#63b8ff" d="M357.98,-210.76C344.93,-187.28 322.45,-146.81 312.64,-129.16"/>
<polygon fill="#63b8ff" stroke="#63b8ff" points="355.01,-212.62 362.92,-219.66 361.13,-209.22 355.01,-212.62"/>
</a>
</g>
</g>
<!-- Node3 -->
<g id="Node000003" class="node">
<title>Node3</title>
<g id="a_Node000003"><a xlink:href="fields_8h.html" target="_top" xlink:title="Declarações para exibição (printing) dos campos (fields) de um ClassFile.">
<polygon fill="white" stroke="#666666" points="152.83,-74 12.83,-74 12.83,-55 152.83,-55 152.83,-74"/>
<text text-anchor="middle" x="82.83" y="-62" font-family="Helvetica,sans-Serif" font-size="10.00">include/members/fields.h</text>
</a>
</g>
</g>
<!-- Node1&#45;&gt;Node3 -->
<g id="edge14_Node000001_Node000003" class="edge">
<title>Node1&#45;&gt;Node3</title>
<g id="a_edge14_Node000001_Node000003"><a xlink:title=" ">
<path fill="none" stroke="#63b8ff" d="M342.64,-215.12C307.49,-196.34 241.84,-160.89 186.83,-129 154.07,-110.01 116.28,-86.53 96.51,-74.12"/>
<polygon fill="#63b8ff" stroke="#63b8ff" points="341.24,-218.34 351.72,-219.96 344.54,-212.16 341.24,-218.34"/>
</a>
</g>
</g>
<!-- Node4 -->
<g id="Node000004" class="node">
<title>Node4</title>
<g id="a_Node000004"><a xlink:href="writer_8h.html" target="_top" xlink:title="Declarações para funções de exibição (printing) de estruturas de ClassFile.">
<polygon fill="white" stroke="#666666" points="277.83,-19 185.83,-19 185.83,0 277.83,0 277.83,-19"/>
<text text-anchor="middle" x="231.83" y="-7" font-family="Helvetica,sans-Serif" font-size="10.00">include/writer.h</text>
</a>
</g>
</g>
<!-- Node1&#45;&gt;Node4 -->
<g id="edge28_Node000001_Node000004" class="edge">
<title>Node1&#45;&gt;Node4</title>
<g id="a_edge28_Node000001_Node000004"><a xlink:title=" ">
<path fill="none" stroke="#63b8ff" d="M290.75,-220.61C203.88,-207.11 66.61,-170.83 3.83,-74 -0.76,-66.91 -1.54,-61.52 3.83,-55 15.32,-41.05 122.5,-24.82 185.74,-16.34"/>
<polygon fill="#63b8ff" stroke="#63b8ff" points="290.42,-224.1 300.83,-222.11 291.45,-217.18 290.42,-224.1"/>
</a>
</g>
</g>
<!-- Node6 -->
<g id="Node000006" class="node">
<title>Node6</title>
<g id="a_Node000006"><a xlink:href="methods_8h.html" target="_top" xlink:title="Declarações para exibição (printing) dos métodos (methods) de um ClassFile.">
<polygon fill="white" stroke="#666666" points="466.83,-74 310.83,-74 310.83,-55 466.83,-55 466.83,-74"/>
<text text-anchor="middle" x="388.83" y="-62" font-family="Helvetica,sans-Serif" font-size="10.00">include/members/methods.h</text>
</a>
</g>
</g>
<!-- Node1&#45;&gt;Node6 -->
<g id="edge15_Node000001_Node000006" class="edge">
<title>Node1&#45;&gt;Node6</title>
<g id="a_edge15_Node000001_Node000006"><a xlink:title=" ">
<path fill="none" stroke="#63b8ff" d="M370.3,-209.37C374.85,-174.03 384.42,-99.79 387.7,-74.31"/>
<polygon fill="#63b8ff" stroke="#63b8ff" points="366.77,-209.37 368.96,-219.74 373.71,-210.27 366.77,-209.37"/>
</a>
</g>
</g>
<!-- Node8 -->
<g id="Node000008" class="node">
<title>Node8</title>
<g id="a_Node000008"><a xlink:href="reader_8h.html" target="_top" xlink:title="Funções de leitura de arquivos .class e utilitários de leitura de inteiros.">
<polygon fill="white" stroke="#666666" points="758.33,-74 663.33,-74 663.33,-55 758.33,-55 758.33,-74"/>
<text text-anchor="middle" x="710.83" y="-62" font-family="Helvetica,sans-Serif" font-size="10.00">include/reader.h</text>
</a>
</g>
</g>
<!-- Node1&#45;&gt;Node8 -->
<g id="edge16_Node000001_Node000008" class="edge">
<title>Node1&#45;&gt;Node8</title>
<g id="a_edge16_Node000001_Node000008"><a xlink:title=" ">
<path fill="none" stroke="#63b8ff" d="M445.18,-218.32C509.93,-206.39 601.64,-181.16 664.83,-129 683.94,-113.23 699.13,-87.79 706.31,-74.4"/>
<polygon fill="#63b8ff" stroke="#63b8ff" points="444.26,-214.93 435.03,-220.12 445.48,-221.82 444.26,-214.93"/>
</a>
</g>
</g>
<!-- Node13 -->
<g id="Node000013" class="node">
<title>Node13</title>
<g id="a_Node000013"><a xlink:href="utils_8h.html" target="_top" xlink:title="Funções auxiliares para manipulação de inteiros, flags, nomes de atributos e descritores utilizados n...">
<polygon fill="white" stroke="#666666" points="537.33,-184 452.33,-184 452.33,-165 537.33,-165 537.33,-184"/>
<text text-anchor="middle" x="494.83" y="-172" font-family="Helvetica,sans-Serif" font-size="10.00">include/utils.h</text>
</a>
</g>
</g>
<!-- Node1&#45;&gt;Node13 -->
<g id="edge17_Node000001_Node000013" class="edge">
<title>Node1&#45;&gt;Node13</title>
<g id="a_edge17_Node000001_Node000013"><a xlink:title=" ">
<path fill="none" stroke="#63b8ff" d="M397.72,-216.03C421.2,-206.23 453.31,-192.83 474.06,-184.17"/>
<polygon fill="#63b8ff" stroke="#63b8ff" points="396.12,-212.9 388.24,-219.98 398.81,-219.36 396.12,-212.9"/>
</a>
</g>
</g>
<!-- Node2&#45;&gt;Node3 -->
<g id="edge2_Node000002_Node000003" class="edge">
<title>Node2&#45;&gt;Node3</title>
<g id="a_edge2_Node000002_Node000003"><a xlink:title=" ">
<path fill="none" stroke="#63b8ff" d="M261.94,-107.69C219.79,-97.76 158.13,-83.24 119.27,-74.08"/>
<polygon fill="#63b8ff" stroke="#63b8ff" points="261.15,-111.1 271.68,-109.98 262.75,-104.28 261.15,-111.1"/>
</a>
</g>
</g>
<!-- Node2&#45;&gt;Node4 -->
<g id="edge12_Node000002_Node000004" class="edge">
<title>Node2&#45;&gt;Node4</title>
<g id="a_edge12_Node000002_Node000004"><a xlink:title=" ">
<path fill="none" stroke="#63b8ff" d="M246.64,-106.69C228.88,-100.11 211.43,-89.89 200.83,-74 188.58,-55.63 208.88,-31.7 222.02,-19.11"/>
<polygon fill="#63b8ff" stroke="#63b8ff" points="245.91,-110.13 256.5,-109.98 248.13,-103.49 245.91,-110.13"/>
</a>
</g>
</g>
<!-- Node2&#45;&gt;Node6 -->
<g id="edge5_Node000002_Node000006" class="edge">
<title>Node2&#45;&gt;Node6</title>
<g id="a_edge5_Node000002_Node000006"><a xlink:title=" ">
<path fill="none" stroke="#63b8ff" d="M329.35,-104.42C344.04,-94.81 363.06,-82.37 375.58,-74.17"/>
<polygon fill="#63b8ff" stroke="#63b8ff" points="327.3,-101.58 320.85,-109.98 331.13,-107.44 327.3,-101.58"/>
</a>
</g>
</g>
<!-- Node2&#45;&gt;Node8 -->
<g id="edge8_Node000002_Node000008" class="edge">
<title>Node2&#45;&gt;Node8</title>
<g id="a_edge8_Node000002_Node000008"><a xlink:title=" ">
<path fill="none" stroke="#63b8ff" d="M370.65,-110.81C440.02,-102.22 554.98,-87.73 653.83,-74 656.9,-73.57 660.07,-73.13 663.26,-72.67"/>
<polygon fill="#63b8ff" stroke="#63b8ff" points="369.83,-107.38 360.34,-112.08 370.69,-114.33 369.83,-107.38"/>
</a>
</g>
</g>
<!-- Node12 -->
<g id="Node000012" class="node">
<title>Node12</title>
<g id="a_Node000012"><a xlink:href="Classfile_8c.html" target="_top" xlink:title="Implementação das funções de liberação de memória associadas a ClassFile.">
<polygon fill="white" stroke="#666666" points="292.33,-74 209.33,-74 209.33,-55 292.33,-55 292.33,-74"/>
<text text-anchor="middle" x="250.83" y="-62" font-family="Helvetica,sans-Serif" font-size="10.00">src/Classfile.c</text>
</a>
</g>
</g>
<!-- Node2&#45;&gt;Node12 -->
<g id="edge13_Node000002_Node000012" class="edge">
<title>Node2&#45;&gt;Node12</title>
<g id="a_edge13_Node000002_Node000012"><a xlink:title=" ">
<path fill="none" stroke="#63b8ff" d="M291.21,-103.04C281.1,-93.64 268.56,-81.98 260.16,-74.17"/>
<polygon fill="#63b8ff" stroke="#63b8ff" points="288.97,-105.74 298.67,-109.98 293.73,-100.61 288.97,-105.74"/>
</a>
</g>
</g>
<!-- Node3&#45;&gt;Node4 -->
<g id="edge3_Node000003_Node000004" class="edge">
<title>Node3&#45;&gt;Node4</title>
<g id="a_edge3_Node000003_Node000004"><a xlink:title=" ">
<path fill="none" stroke="#63b8ff" d="M116.43,-51.55C144.1,-41.71 182.68,-27.98 207.46,-19.17"/>
<polygon fill="#63b8ff" stroke="#63b8ff" points="115.02,-48.34 106.77,-54.98 117.37,-54.93 115.02,-48.34"/>
</a>
</g>
</g>
<!-- Node5 -->
<g id="Node000005" class="node">
<title>Node5</title>
<g id="a_Node000005"><a xlink:href="fields_8c.html" target="_top" xlink:title="Implementação das rotinas de exibição (printing) dos campos (fields) de um ClassFile.">
<polygon fill="white" stroke="#666666" points="141.83,-19 23.83,-19 23.83,0 141.83,0 141.83,-19"/>
<text text-anchor="middle" x="82.83" y="-7" font-family="Helvetica,sans-Serif" font-size="10.00">src/members/fields.c</text>
</a>
</g>
</g>
<!-- Node3&#45;&gt;Node5 -->
<g id="edge4_Node000003_Node000005" class="edge">
<title>Node3&#45;&gt;Node5</title>
<g id="a_edge4_Node000003_Node000005"><a xlink:title=" ">
<path fill="none" stroke="#63b8ff" d="M82.83,-44.66C82.83,-35.93 82.83,-25.99 82.83,-19.09"/>
<polygon fill="#63b8ff" stroke="#63b8ff" points="79.33,-44.75 82.83,-54.75 86.33,-44.75 79.33,-44.75"/>
</a>
</g>
</g>
<!-- Node6&#45;&gt;Node4 -->
<g id="edge6_Node000006_Node000004" class="edge">
<title>Node6&#45;&gt;Node4</title>
<g id="a_edge6_Node000006_Node000004"><a xlink:title=" ">
<path fill="none" stroke="#63b8ff" d="M353.79,-51.67C324.51,-41.79 283.46,-27.93 257.26,-19.08"/>
<polygon fill="#63b8ff" stroke="#63b8ff" points="353.01,-55.1 363.61,-54.98 355.25,-48.47 353.01,-55.1"/>
</a>
</g>
</g>
<!-- Node7 -->
<g id="Node000007" class="node">
<title>Node7</title>
<g id="a_Node000007"><a xlink:href="methods_8c.html" target="_top" xlink:title="Implementação das rotinas de exibição dos métodos definidos em um ClassFile.">
<polygon fill="white" stroke="#666666" points="455.83,-19 321.83,-19 321.83,0 455.83,0 455.83,-19"/>
<text text-anchor="middle" x="388.83" y="-7" font-family="Helvetica,sans-Serif" font-size="10.00">src/members/methods.c</text>
</a>
</g>
</g>
<!-- Node6&#45;&gt;Node7 -->
<g id="edge7_Node000006_Node000007" class="edge">
<title>Node6&#45;&gt;Node7</title>
<g id="a_edge7_Node000006_Node000007"><a xlink:title=" ">
<path fill="none" stroke="#63b8ff" d="M388.83,-44.66C388.83,-35.93 388.83,-25.99 388.83,-19.09"/>
<polygon fill="#63b8ff" stroke="#63b8ff" points="385.33,-44.75 388.83,-54.75 392.33,-44.75 385.33,-44.75"/>
</a>
</g>
</g>
<!-- Node9 -->
<g id="Node000009" class="node">
<title>Node9</title>
<g id="a_Node000009"><a xlink:href="parser_8c.html" target="_top" xlink:title="Implementação do parser do constant pool e utilitários de decodificação.">
<polygon fill="white" stroke="#666666" points="649.83,-19 563.83,-19 563.83,0 649.83,0 649.83,-19"/>
<text text-anchor="middle" x="606.83" y="-7" font-family="Helvetica,sans-Serif" font-size="10.00">src/cp/parser.c</text>
</a>
</g>
</g>
<!-- Node8&#45;&gt;Node9 -->
<g id="edge9_Node000008_Node000009" class="edge">
<title>Node8&#45;&gt;Node9</title>
<g id="a_edge9_Node000008_Node000009"><a xlink:title=" ">
<path fill="none" stroke="#63b8ff" d="M685.06,-50.37C665.96,-40.63 640.46,-27.64 623.85,-19.17"/>
<polygon fill="#63b8ff" stroke="#63b8ff" points="683.62,-53.56 694.12,-54.98 686.8,-47.33 683.62,-53.56"/>
</a>
</g>
</g>
<!-- Node10 -->
<g id="Node000010" class="node">
<title>Node10</title>
<g id="a_Node000010"><a xlink:href="main_8c.html" target="_top" xlink:title=" ">
<polygon fill="white" stroke="#666666" points="826.33,-19 759.33,-19 759.33,0 826.33,0 826.33,-19"/>
<text text-anchor="middle" x="792.83" y="-7" font-family="Helvetica,sans-Serif" font-size="10.00">src/main.c</text>
</a>
</g>
</g>
<!-- Node8&#45;&gt;Node10 -->
<g id="edge10_Node000008_Node000010" class="edge">
<title>Node8&#45;&gt;Node10</title>
<g id="a_edge10_Node000008_Node000010"><a xlink:title=" ">
<path fill="none" stroke="#63b8ff" d="M732.61,-49.42C747.49,-39.81 766.74,-27.37 779.42,-19.17"/>
<polygon fill="#63b8ff" stroke="#63b8ff" points="730.51,-46.62 724.01,-54.98 734.31,-52.5 730.51,-46.62"/>
</a>
</g>
</g>
<!-- Node11 -->
<g id="Node000011" class="node">
<title>Node11</title>
<g id="a_Node000011"><a xlink:href="reader_8c.html" target="_top" xlink:title="Implementação das funções de leitura de arquivos .class e utilitários de leitura.">
<polygon fill="white" stroke="#666666" points="741.33,-19 668.33,-19 668.33,0 741.33,0 741.33,-19"/>
<text text-anchor="middle" x="704.83" y="-7" font-family="Helvetica,sans-Serif" font-size="10.00">src/reader.c</text>
</a>
</g>
</g>
<!-- Node8&#45;&gt;Node11 -->
<g id="edge11_Node000008_Node000011" class="edge">
<title>Node8&#45;&gt;Node11</title>
<g id="a_edge11_Node000008_Node000011"><a xlink:title=" ">
<path fill="none" stroke="#63b8ff" d="M708.7,-44.66C707.71,-35.93 706.59,-25.99 705.81,-19.09"/>
<polygon fill="#63b8ff" stroke="#63b8ff" points="705.24,-45.21 709.84,-54.75 712.19,-44.42 705.24,-45.21"/>
</a>
</g>
</g>
<!-- Node13&#45;&gt;Node2 -->
<g id="edge18_Node000013_Node000002" class="edge">
<title>Node13&#45;&gt;Node2</title>
<g id="a_edge18_Node000013_Node000002"><a xlink:title=" ">
<path fill="none" stroke="#63b8ff" d="M454.9,-162.18C419.93,-152.27 369.87,-138.08 338.11,-129.08"/>
<polygon fill="#63b8ff" stroke="#63b8ff" points="454.21,-165.63 464.79,-164.98 456.12,-158.89 454.21,-165.63"/>
</a>
</g>
</g>
<!-- Node13&#45;&gt;Node3 -->
<g id="edge22_Node000013_Node000003" class="edge">
<title>Node13&#45;&gt;Node3</title>
<g id="a_edge22_Node000013_Node000003"><a xlink:title=" ">
<path fill="none" stroke="#63b8ff" d="M442.09,-167.03C391.42,-160.11 313.03,-147.57 246.83,-129 192.74,-113.83 131.68,-87.66 101.62,-74.14"/>
<polygon fill="#63b8ff" stroke="#63b8ff" points="441.77,-170.52 452.15,-168.38 442.7,-163.58 441.77,-170.52"/>
</a>
</g>
</g>
<!-- Node13&#45;&gt;Node4 -->
<g id="edge25_Node000013_Node000004" class="edge">
<title>Node13&#45;&gt;Node4</title>
<g id="a_edge25_Node000013_Node000004"><a xlink:title=" ">
<path fill="none" stroke="#63b8ff" d="M497.81,-154.83C500.82,-128.74 501.86,-81.59 475.83,-55 462.15,-41.02 344.91,-24.46 278.05,-16.03"/>
<polygon fill="#63b8ff" stroke="#63b8ff" points="494.32,-154.52 496.43,-164.9 501.26,-155.47 494.32,-154.52"/>
</a>
</g>
</g>
<!-- Node13&#45;&gt;Node6 -->
<g id="edge23_Node000013_Node000006" class="edge">
<title>Node13&#45;&gt;Node6</title>
<g id="a_edge23_Node000013_Node000006"><a xlink:title=" ">
<path fill="none" stroke="#63b8ff" d="M478.94,-157.3C456.16,-134.1 415.05,-92.21 397.33,-74.16"/>
<polygon fill="#63b8ff" stroke="#63b8ff" points="476.66,-159.98 486.16,-164.66 481.65,-155.07 476.66,-159.98"/>
</a>
</g>
</g>
<!-- Node13&#45;&gt;Node8 -->
<g id="edge24_Node000013_Node000008" class="edge">
<title>Node13&#45;&gt;Node8</title>
<g id="a_edge24_Node000013_Node000008"><a xlink:title=" ">
<path fill="none" stroke="#63b8ff" d="M547.36,-162.7C575.36,-155.6 609.72,-144.68 637.83,-129 664.83,-113.94 690.73,-87.73 703.16,-74.17"/>
<polygon fill="#63b8ff" stroke="#63b8ff" points="546.24,-159.37 537.36,-165.14 547.91,-166.17 546.24,-159.37"/>
</a>
</g>
</g>
<!-- Node13&#45;&gt;Node10 -->
<g id="edge26_Node000013_Node000010" class="edge">
<title>Node13&#45;&gt;Node10</title>
<g id="a_edge26_Node000013_Node000010"><a xlink:title=" ">
<path fill="none" stroke="#63b8ff" d="M547.47,-169.01C609.36,-160.85 710.86,-137.96 767.83,-74 782.18,-57.9 788.76,-32.6 791.37,-19.31"/>
<polygon fill="#63b8ff" stroke="#63b8ff" points="547.01,-165.54 537.52,-170.24 547.87,-172.49 547.01,-165.54"/>
</a>
</g>
</g>
<!-- Node14 -->
<g id="Node000014" class="node">
<title>Node14</title>
<g id="a_Node000014"><a xlink:href="cp_2writer_8h.html" target="_top" xlink:title="Funções para exibição do Constant Pool de um ClassFile.">
<polygon fill="white" stroke="#666666" points="628.83,-129 522.83,-129 522.83,-110 628.83,-110 628.83,-129"/>
<text text-anchor="middle" x="575.83" y="-117" font-family="Helvetica,sans-Serif" font-size="10.00">include/cp/writer.h</text>
</a>
</g>
</g>
<!-- Node13&#45;&gt;Node14 -->
<g id="edge19_Node000013_Node000014" class="edge">
<title>Node13&#45;&gt;Node14</title>
<g id="a_edge19_Node000013_Node000014"><a xlink:title=" ">
<path fill="none" stroke="#63b8ff" d="M516.35,-159.42C531.04,-149.81 550.06,-137.37 562.58,-129.17"/>
<polygon fill="#63b8ff" stroke="#63b8ff" points="514.3,-156.58 507.85,-164.98 518.13,-162.44 514.3,-156.58"/>
</a>
</g>
</g>
<!-- Node16 -->
<g id="Node000016" class="node">
<title>Node16</title>
<g id="a_Node000016"><a xlink:href="utils_8c.html" target="_top" xlink:title="Implementação de funções utilitárias para manipulação de endianness, conversão de flags,...">
<polygon fill="white" stroke="#666666" points="878.33,-129 815.33,-129 815.33,-110 878.33,-110 878.33,-129"/>
<text text-anchor="middle" x="846.83" y="-117" font-family="Helvetica,sans-Serif" font-size="10.00">src/utils.c</text>
</a>
</g>
</g>
<!-- Node13&#45;&gt;Node16 -->
<g id="edge27_Node000013_Node000016" class="edge">
<title>Node13&#45;&gt;Node16</title>
<g id="a_edge27_Node000013_Node000016"><a xlink:title=" ">
<path fill="none" stroke="#63b8ff" d="M547.65,-166.45C608.71,-158.14 712.21,-143.63 800.83,-129 805.48,-128.23 810.38,-127.38 815.19,-126.51"/>
<polygon fill="#63b8ff" stroke="#63b8ff" points="546.92,-163.01 537.48,-167.82 547.86,-169.95 546.92,-163.01"/>
</a>
</g>
</g>
<!-- Node14&#45;&gt;Node4 -->
<g id="edge20_Node000014_Node000004" class="edge">
<title>Node14&#45;&gt;Node4</title>
<g id="a_edge20_Node000014_Node000004"><a xlink:title=" ">
<path fill="none" stroke="#63b8ff" d="M563.29,-101.92C551.09,-87.09 531.17,-66.04 508.83,-55 488.53,-44.97 351.5,-26.02 278.08,-16.41"/>
<polygon fill="#63b8ff" stroke="#63b8ff" points="560.59,-104.15 569.54,-109.82 566.07,-99.8 560.59,-104.15"/>
</a>
</g>
</g>
<!-- Node15 -->
<g id="Node000015" class="node">
<title>Node15</title>
<g id="a_Node000015"><a xlink:href="cp_2writer_8c.html" target="_top" xlink:title="Funções para exibição do Constant Pool (implementação).">
<polygon fill="white" stroke="#666666" points="644.83,-74 560.83,-74 560.83,-55 644.83,-55 644.83,-74"/>
<text text-anchor="middle" x="602.83" y="-62" font-family="Helvetica,sans-Serif" font-size="10.00">src/cp/writer.c</text>
</a>
</g>
</g>
<!-- Node14&#45;&gt;Node15 -->
<g id="edge21_Node000014_Node000015" class="edge">
<title>Node14&#45;&gt;Node15</title>
<g id="a_edge21_Node000014_Node000015"><a xlink:title=" ">
<path fill="none" stroke="#63b8ff" d="M584.84,-100.82C589.42,-91.82 594.79,-81.29 598.46,-74.09"/>
<polygon fill="#63b8ff" stroke="#63b8ff" points="581.71,-99.25 580.29,-109.75 587.95,-102.43 581.71,-99.25"/>
</a>
</g>
</g>
</g>
</svg>
