<?xml version="1.0" encoding="UTF-8" standalone="no"?>
<!DOCTYPE svg PUBLIC "-//W3C//DTD SVG 1.1//EN"
 "http://www.w3.org/Graphics/SVG/1.1/DTD/svg11.dtd">
<!-- Generated by graphviz version 2.43.0 (0)
 -->
<!-- Title: show_methods Pages: 1 -->
<svg width="232pt" height="64pt"
 viewBox="0.00 0.00 232.00 64.00" xmlns="http://www.w3.org/2000/svg" xmlns:xlink="http://www.w3.org/1999/xlink">
<g id="graph0" class="graph" transform="scale(1 1) rotate(0) translate(4 60)">
<title>show_methods</title>
<!-- Node1 -->
<g id="Node000001" class="node">
<title>Node1</title>
<g id="a_Node000001"><a xlink:title="Exibe os métodos (methods) definidos em um ClassFile.">
<polygon fill="#999999" stroke="#666666" points="90,-37 0,-37 0,-18 90,-18 90,-37"/>
<text text-anchor="middle" x="45" y="-25" font-family="Helvetica,sans-Serif" font-size="10.00">show_methods</text>
</a>
</g>
</g>
<!-- Node2 -->
<g id="Node000002" class="node">
<title>Node2</title>
<g id="a_Node000002"><a xlink:href="utils_8c.html#a2da22ca95cc96ff610400450f1723cb2" target="_top" xlink:title="Converte descritores da JVM para representações legíveis.">
<polygon fill="white" stroke="#666666" points="224,-56 126,-56 126,-37 224,-37 224,-56"/>
<text text-anchor="middle" x="175" y="-44" font-family="Helvetica,sans-Serif" font-size="10.00">parse_descriptor</text>
</a>
</g>
</g>
<!-- Node1&#45;&gt;Node2 -->
<g id="edge1_Node000001_Node000002" class="edge">
<title>Node1&#45;&gt;Node2</title>
<g id="a_edge1_Node000001_Node000002"><a xlink:title=" ">
<path fill="none" stroke="#63b8ff" d="M90.05,-34.04C98.37,-35.27 107.18,-36.58 115.85,-37.87"/>
<polygon fill="#63b8ff" stroke="#63b8ff" points="115.52,-41.36 125.93,-39.36 116.55,-34.43 115.52,-41.36"/>
</a>
</g>
</g>
<!-- Node3 -->
<g id="Node000003" class="node">
<title>Node3</title>
<g id="a_Node000003"><a xlink:href="utils_8c.html#a54e5e04c761648da1cbda196724ffd37" target="_top" xlink:title="Converte flags da JVM (u2) em uma string legível.">
<polygon fill="white" stroke="#666666" points="211,-19 139,-19 139,0 211,0 211,-19"/>
<text text-anchor="middle" x="175" y="-7" font-family="Helvetica,sans-Serif" font-size="10.00">parse_flags</text>
</a>
</g>
</g>
<!-- Node1&#45;&gt;Node3 -->
<g id="edge2_Node000001_Node000003" class="edge">
<title>Node1&#45;&gt;Node3</title>
<g id="a_edge2_Node000001_Node000003"><a xlink:title=" ">
<path fill="none" stroke="#63b8ff" d="M90.05,-21.31C102.48,-19.56 116.02,-17.65 128.54,-15.89"/>
<polygon fill="#63b8ff" stroke="#63b8ff" points="129.34,-19.32 138.75,-14.46 128.36,-12.38 129.34,-19.32"/>
</a>
</g>
</g>
</g>
</svg>
