<?xml version="1.0" encoding="UTF-8" standalone="no"?>
<!DOCTYPE svg PUBLIC "-//W3C//DTD SVG 1.1//EN"
 "http://www.w3.org/Graphics/SVG/1.1/DTD/svg11.dtd">
<!-- Generated by graphviz version 2.43.0 (0)
 -->
<!-- Title: src/cp/parser.c Pages: 1 -->
<svg width="587pt" height="412pt"
 viewBox="0.00 0.00 586.50 412.00" xmlns="http://www.w3.org/2000/svg" xmlns:xlink="http://www.w3.org/1999/xlink">
<g id="graph0" class="graph" transform="scale(1 1) rotate(0) translate(4 408)">
<title>src/cp/parser.c</title>
<!-- Node1 -->
<g id="Node000001" class="node">
<title>Node1</title>
<g id="a_Node000001"><a xlink:title="Implementação do parser do constant pool e utilitários de decodificação.">
<polygon fill="#999999" stroke="#666666" points="270.5,-404 184.5,-404 184.5,-385 270.5,-385 270.5,-404"/>
<text text-anchor="middle" x="227.5" y="-392" font-family="Helvetica,sans-Serif" font-size="10.00">src/cp/parser.c</text>
</a>
</g>
</g>
<!-- Node2 -->
<g id="Node000002" class="node">
<title>Node2</title>
<g id="a_Node000002"><a xlink:href="parser_8h.html" target="_top" xlink:title="Prototótipos para o parser do constant pool e utilitários de decodificação.">
<polygon fill="white" stroke="#666666" points="107.5,-294 51.5,-294 51.5,-275 107.5,-275 107.5,-294"/>
<text text-anchor="middle" x="79.5" y="-282" font-family="Helvetica,sans-Serif" font-size="10.00">parser.h</text>
</a>
</g>
</g>
<!-- Node1&#45;&gt;Node2 -->
<g id="edge1_Node000001_Node000002" class="edge">
<title>Node1&#45;&gt;Node2</title>
<g id="a_edge1_Node000001_Node000002"><a xlink:title=" ">
<path fill="none" stroke="#63b8ff" d="M215.64,-384.84C190.42,-366.44 131.21,-323.23 99.83,-300.34"/>
<polygon fill="#63b8ff" stroke="#63b8ff" points="101.56,-297.26 91.42,-294.2 97.43,-302.92 101.56,-297.26"/>
</a>
</g>
</g>
<!-- Node9 -->
<g id="Node000009" class="node">
<title>Node9</title>
<g id="a_Node000009"><a xlink:href="reader_8h.html" target="_top" xlink:title="Funções de leitura de arquivos .class e utilitários de leitura de inteiros.">
<polygon fill="white" stroke="#666666" points="371.5,-349 315.5,-349 315.5,-330 371.5,-330 371.5,-349"/>
<text text-anchor="middle" x="343.5" y="-337" font-family="Helvetica,sans-Serif" font-size="10.00">reader.h</text>
</a>
</g>
</g>
<!-- Node1&#45;&gt;Node9 -->
<g id="edge8_Node000001_Node000009" class="edge">
<title>Node1&#45;&gt;Node9</title>
<g id="a_edge8_Node000001_Node000009"><a xlink:title=" ">
<path fill="none" stroke="#63b8ff" d="M246.14,-384.98C264.8,-376.46 293.75,-363.23 315.24,-353.41"/>
<polygon fill="#63b8ff" stroke="#63b8ff" points="316.88,-356.51 324.52,-349.17 313.97,-350.14 316.88,-356.51"/>
</a>
</g>
</g>
<!-- Node3 -->
<g id="Node000003" class="node">
<title>Node3</title>
<g id="a_Node000003"><a xlink:title=" ">
<polygon fill="#e0e0e0" stroke="#999999" points="142.5,-184 92.5,-184 92.5,-165 142.5,-165 142.5,-184"/>
<text text-anchor="middle" x="117.5" y="-172" font-family="Helvetica,sans-Serif" font-size="10.00">stdio.h</text>
</a>
</g>
</g>
<!-- Node2&#45;&gt;Node3 -->
<g id="edge2_Node000002_Node000003" class="edge">
<title>Node2&#45;&gt;Node3</title>
<g id="a_edge2_Node000002_Node000003"><a xlink:title=" ">
<path fill="none" stroke="#63b8ff" d="M82.61,-274.66C88.82,-257.01 102.87,-217.09 111.12,-193.64"/>
<polygon fill="#63b8ff" stroke="#63b8ff" points="114.44,-194.75 114.45,-184.16 107.83,-192.43 114.44,-194.75"/>
</a>
</g>
</g>
<!-- Node4 -->
<g id="Node000004" class="node">
<title>Node4</title>
<g id="a_Node000004"><a xlink:title=" ">
<polygon fill="#e0e0e0" stroke="#999999" points="222,-184 169,-184 169,-165 222,-165 222,-184"/>
<text text-anchor="middle" x="195.5" y="-172" font-family="Helvetica,sans-Serif" font-size="10.00">stdlib.h</text>
</a>
</g>
</g>
<!-- Node2&#45;&gt;Node4 -->
<g id="edge3_Node000002_Node000004" class="edge">
<title>Node2&#45;&gt;Node4</title>
<g id="a_edge3_Node000002_Node000004"><a xlink:title=" ">
<path fill="none" stroke="#63b8ff" d="M88.99,-274.66C108.63,-256.38 153.95,-214.18 178.67,-191.17"/>
<polygon fill="#63b8ff" stroke="#63b8ff" points="181.27,-193.53 186.2,-184.16 176.5,-188.41 181.27,-193.53"/>
</a>
</g>
</g>
<!-- Node5 -->
<g id="Node000005" class="node">
<title>Node5</title>
<g id="a_Node000005"><a xlink:title=" ">
<polygon fill="#e0e0e0" stroke="#999999" points="51,-239 0,-239 0,-220 51,-220 51,-239"/>
<text text-anchor="middle" x="25.5" y="-227" font-family="Helvetica,sans-Serif" font-size="10.00">math.h</text>
</a>
</g>
</g>
<!-- Node2&#45;&gt;Node5 -->
<g id="edge4_Node000002_Node000005" class="edge">
<title>Node2&#45;&gt;Node5</title>
<g id="a_edge4_Node000002_Node000005"><a xlink:title=" ">
<path fill="none" stroke="#63b8ff" d="M70.58,-274.75C62.72,-267.03 51.07,-255.6 41.58,-246.28"/>
<polygon fill="#63b8ff" stroke="#63b8ff" points="43.84,-243.6 34.25,-239.09 38.94,-248.59 43.84,-243.6"/>
</a>
</g>
</g>
<!-- Node6 -->
<g id="Node000006" class="node">
<title>Node6</title>
<g id="a_Node000006"><a xlink:href="constants_8h.html" target="_top" xlink:title=" ">
<polygon fill="white" stroke="#666666" points="333,-239 260,-239 260,-220 333,-220 333,-239"/>
<text text-anchor="middle" x="296.5" y="-227" font-family="Helvetica,sans-Serif" font-size="10.00">constants.h</text>
</a>
</g>
</g>
<!-- Node2&#45;&gt;Node6 -->
<g id="edge5_Node000002_Node000006" class="edge">
<title>Node2&#45;&gt;Node6</title>
<g id="a_edge5_Node000002_Node000006"><a xlink:title=" ">
<path fill="none" stroke="#63b8ff" d="M107.87,-276.57C144.46,-267.64 208.51,-251.99 251.7,-241.44"/>
<polygon fill="#63b8ff" stroke="#63b8ff" points="252.78,-244.78 261.67,-239.01 251.12,-237.98 252.78,-244.78"/>
</a>
</g>
</g>
<!-- Node7 -->
<g id="Node000007" class="node">
<title>Node7</title>
<g id="a_Node000007"><a xlink:href="uinteger_8h.html" target="_top" xlink:title=" ">
<polygon fill="white" stroke="#666666" points="428,-74 363,-74 363,-55 428,-55 428,-74"/>
<text text-anchor="middle" x="395.5" y="-62" font-family="Helvetica,sans-Serif" font-size="10.00">uinteger.h</text>
</a>
</g>
</g>
<!-- Node6&#45;&gt;Node7 -->
<g id="edge6_Node000006_Node000007" class="edge">
<title>Node6&#45;&gt;Node7</title>
<g id="a_edge6_Node000006_Node000007"><a xlink:title=" ">
<path fill="none" stroke="#63b8ff" d="M300.52,-219.88C309.97,-199.93 334.71,-149.29 360.5,-110 366.9,-100.24 374.9,-89.96 381.63,-81.74"/>
<polygon fill="#63b8ff" stroke="#63b8ff" points="384.34,-83.95 388.07,-74.03 378.97,-79.47 384.34,-83.95"/>
</a>
</g>
</g>
<!-- Node8 -->
<g id="Node000008" class="node">
<title>Node8</title>
<g id="a_Node000008"><a xlink:title=" ">
<polygon fill="#e0e0e0" stroke="#999999" points="422,-19 369,-19 369,0 422,0 422,-19"/>
<text text-anchor="middle" x="395.5" y="-7" font-family="Helvetica,sans-Serif" font-size="10.00">stdint.h</text>
</a>
</g>
</g>
<!-- Node7&#45;&gt;Node8 -->
<g id="edge7_Node000007_Node000008" class="edge">
<title>Node7&#45;&gt;Node8</title>
<g id="a_edge7_Node000007_Node000008"><a xlink:title=" ">
<path fill="none" stroke="#63b8ff" d="M395.5,-54.75C395.5,-47.8 395.5,-37.85 395.5,-29.13"/>
<polygon fill="#63b8ff" stroke="#63b8ff" points="399,-29.09 395.5,-19.09 392,-29.09 399,-29.09"/>
</a>
</g>
</g>
<!-- Node9&#45;&gt;Node2 -->
<g id="edge32_Node000009_Node000002" class="edge">
<title>Node9&#45;&gt;Node2</title>
<g id="a_edge32_Node000009_Node000002"><a xlink:title=" ">
<path fill="none" stroke="#63b8ff" d="M315.46,-332.9C273.34,-324.48 191.25,-308.05 121.5,-294 120.23,-293.74 118.93,-293.48 117.63,-293.22"/>
<polygon fill="#63b8ff" stroke="#63b8ff" points="118.01,-289.73 107.51,-291.18 116.62,-296.59 118.01,-289.73"/>
</a>
</g>
</g>
<!-- Node9&#45;&gt;Node3 -->
<g id="edge9_Node000009_Node000003" class="edge">
<title>Node9&#45;&gt;Node3</title>
<g id="a_edge9_Node000009_Node000003"><a xlink:title=" ">
<path fill="none" stroke="#63b8ff" d="M324.01,-329.95C306.11,-321.75 279.15,-308.5 257.5,-294 209.24,-261.69 158.69,-215.27 133.6,-191.25"/>
<polygon fill="#63b8ff" stroke="#63b8ff" points="135.73,-188.44 126.11,-184.01 130.87,-193.48 135.73,-188.44"/>
</a>
</g>
</g>
<!-- Node9&#45;&gt;Node4 -->
<g id="edge10_Node000009_Node000004" class="edge">
<title>Node9&#45;&gt;Node4</title>
<g id="a_edge10_Node000009_Node000004"><a xlink:title=" ">
<path fill="none" stroke="#63b8ff" d="M330,-329.8C306.45,-314.07 257.4,-278.81 226.5,-239 215.82,-225.24 207.44,-207.2 202.11,-193.87"/>
<polygon fill="#63b8ff" stroke="#63b8ff" points="205.32,-192.46 198.49,-184.35 198.77,-194.95 205.32,-192.46"/>
</a>
</g>
</g>
<!-- Node9&#45;&gt;Node7 -->
<g id="edge33_Node000009_Node000007" class="edge">
<title>Node9&#45;&gt;Node7</title>
<g id="a_edge33_Node000009_Node000007"><a xlink:title=" ">
<path fill="none" stroke="#63b8ff" d="M371.85,-338.17C434.35,-335.78 578.5,-320.53 578.5,-230.5 578.5,-230.5 578.5,-230.5 578.5,-173.5 578.5,-108.69 492.32,-81.97 438.24,-71.58"/>
<polygon fill="#63b8ff" stroke="#63b8ff" points="438.68,-68.11 428.22,-69.77 437.44,-75 438.68,-68.11"/>
</a>
</g>
</g>
<!-- Node10 -->
<g id="Node000010" class="node">
<title>Node10</title>
<g id="a_Node000010"><a xlink:title=" ">
<polygon fill="#e0e0e0" stroke="#999999" points="500,-184 447,-184 447,-165 500,-165 500,-184"/>
<text text-anchor="middle" x="473.5" y="-172" font-family="Helvetica,sans-Serif" font-size="10.00">string.h</text>
</a>
</g>
</g>
<!-- Node9&#45;&gt;Node10 -->
<g id="edge11_Node000009_Node000010" class="edge">
<title>Node9&#45;&gt;Node10</title>
<g id="a_edge11_Node000009_Node000010"><a xlink:title=" ">
<path fill="none" stroke="#63b8ff" d="M371.71,-334.6C412.56,-328.31 485,-314.51 500.5,-294 523.4,-263.7 500.75,-217.42 485.28,-192.62"/>
<polygon fill="#63b8ff" stroke="#63b8ff" points="488.21,-190.7 479.81,-184.24 482.35,-194.53 488.21,-190.7"/>
</a>
</g>
</g>
<!-- Node11 -->
<g id="Node000011" class="node">
<title>Node11</title>
<g id="a_Node000011"><a xlink:title=" ">
<polygon fill="#e0e0e0" stroke="#999999" points="474.5,-294 426.5,-294 426.5,-275 474.5,-275 474.5,-294"/>
<text text-anchor="middle" x="450.5" y="-282" font-family="Helvetica,sans-Serif" font-size="10.00">time.h</text>
</a>
</g>
</g>
<!-- Node9&#45;&gt;Node11 -->
<g id="edge12_Node000009_Node000011" class="edge">
<title>Node9&#45;&gt;Node11</title>
<g id="a_edge12_Node000009_Node000011"><a xlink:title=" ">
<path fill="none" stroke="#63b8ff" d="M360.69,-329.98C377.75,-321.54 404.13,-308.47 423.9,-298.68"/>
<polygon fill="#63b8ff" stroke="#63b8ff" points="425.59,-301.75 433,-294.17 422.48,-295.47 425.59,-301.75"/>
</a>
</g>
</g>
<!-- Node12 -->
<g id="Node000012" class="node">
<title>Node12</title>
<g id="a_Node000012"><a xlink:href="Classfile_8h.html" target="_top" xlink:title="Estruturas e funções para representar e liberar um arquivo .class Java (ClassFile).">
<polygon fill="white" stroke="#666666" points="408,-294 341,-294 341,-275 408,-275 408,-294"/>
<text text-anchor="middle" x="374.5" y="-282" font-family="Helvetica,sans-Serif" font-size="10.00">Classfile.h</text>
</a>
</g>
</g>
<!-- Node9&#45;&gt;Node12 -->
<g id="edge13_Node000009_Node000012" class="edge">
<title>Node9&#45;&gt;Node12</title>
<g id="a_edge13_Node000009_Node000012"><a xlink:title=" ">
<path fill="none" stroke="#63b8ff" d="M348.62,-329.75C352.86,-322.49 359.03,-311.95 364.28,-302.98"/>
<polygon fill="#63b8ff" stroke="#63b8ff" points="367.45,-304.49 369.48,-294.09 361.41,-300.95 367.45,-304.49"/>
</a>
</g>
</g>
<!-- Node13 -->
<g id="Node000013" class="node">
<title>Node13</title>
<g id="a_Node000013"><a xlink:href="member_8h.html" target="_top" xlink:title=" ">
<polygon fill="white" stroke="#666666" points="428.5,-184 362.5,-184 362.5,-165 428.5,-165 428.5,-184"/>
<text text-anchor="middle" x="395.5" y="-172" font-family="Helvetica,sans-Serif" font-size="10.00">member.h</text>
</a>
</g>
</g>
<!-- Node9&#45;&gt;Node13 -->
<g id="edge34_Node000009_Node000013" class="edge">
<title>Node9&#45;&gt;Node13</title>
<g id="a_edge34_Node000009_Node000013"><a xlink:title=" ">
<path fill="none" stroke="#63b8ff" d="M371.62,-338.66C404.57,-337.14 457.9,-328.99 483.5,-294 511.27,-256.03 453.95,-211.57 419.3,-189.46"/>
<polygon fill="#63b8ff" stroke="#63b8ff" points="420.98,-186.38 410.63,-184.09 417.29,-192.33 420.98,-186.38"/>
</a>
</g>
</g>
<!-- Node18 -->
<g id="Node000018" class="node">
<title>Node18</title>
<g id="a_Node000018"><a xlink:href="utils_8h.html" target="_top" xlink:title="Funções auxiliares para manipulação de inteiros, flags, nomes de atributos e descritores utilizados n...">
<polygon fill="white" stroke="#666666" points="398,-239 351,-239 351,-220 398,-220 398,-239"/>
<text text-anchor="middle" x="374.5" y="-227" font-family="Helvetica,sans-Serif" font-size="10.00">utils.h</text>
</a>
</g>
</g>
<!-- Node9&#45;&gt;Node18 -->
<g id="edge31_Node000009_Node000018" class="edge">
<title>Node9&#45;&gt;Node18</title>
<g id="a_edge31_Node000009_Node000018"><a xlink:title=" ">
<path fill="none" stroke="#63b8ff" d="M338.95,-329.98C332.94,-317.51 323.93,-293.72 331.5,-275 336.19,-263.41 345.5,-253.16 354.26,-245.43"/>
<polygon fill="#63b8ff" stroke="#63b8ff" points="356.5,-248.12 362.01,-239.07 352.06,-242.71 356.5,-248.12"/>
</a>
</g>
</g>
<!-- Node12&#45;&gt;Node4 -->
<g id="edge14_Node000012_Node000004" class="edge">
<title>Node12&#45;&gt;Node4</title>
<g id="a_edge14_Node000012_Node000004"><a xlink:title=" ">
<path fill="none" stroke="#63b8ff" d="M340.75,-276.37C314.5,-269.7 278.05,-257.88 250.5,-239 232.34,-226.56 216.48,-206.71 206.51,-192.52"/>
<polygon fill="#63b8ff" stroke="#63b8ff" points="209.35,-190.47 200.85,-184.14 203.55,-194.39 209.35,-190.47"/>
</a>
</g>
</g>
<!-- Node12&#45;&gt;Node6 -->
<g id="edge23_Node000012_Node000006" class="edge">
<title>Node12&#45;&gt;Node6</title>
<g id="a_edge23_Node000012_Node000006"><a xlink:title=" ">
<path fill="none" stroke="#63b8ff" d="M361.97,-274.98C350.1,-266.92 332.04,-254.65 317.89,-245.03"/>
<polygon fill="#63b8ff" stroke="#63b8ff" points="319.5,-241.9 309.26,-239.17 315.56,-247.69 319.5,-241.9"/>
</a>
</g>
</g>
<!-- Node12&#45;&gt;Node7 -->
<g id="edge15_Node000012_Node000007" class="edge">
<title>Node12&#45;&gt;Node7</title>
<g id="a_edge15_Node000012_Node000007"><a xlink:title=" ">
<path fill="none" stroke="#63b8ff" d="M396.35,-275C428.09,-261.3 485.74,-231.04 509.5,-184 532.74,-138 466.51,-97.95 425.44,-78.33"/>
<polygon fill="#63b8ff" stroke="#63b8ff" points="426.65,-75.04 416.11,-74.01 423.72,-81.39 426.65,-75.04"/>
</a>
</g>
</g>
<!-- Node12&#45;&gt;Node13 -->
<g id="edge16_Node000012_Node000013" class="edge">
<title>Node12&#45;&gt;Node13</title>
<g id="a_edge16_Node000012_Node000013"><a xlink:title=" ">
<path fill="none" stroke="#63b8ff" d="M383.52,-274.96C391.57,-266.66 402.79,-253.25 407.5,-239 412.39,-224.19 408.43,-206.73 403.79,-193.87"/>
<polygon fill="#63b8ff" stroke="#63b8ff" points="406.91,-192.26 399.91,-184.31 400.43,-194.89 406.91,-192.26"/>
</a>
</g>
</g>
<!-- Node12&#45;&gt;Node18 -->
<g id="edge24_Node000012_Node000018" class="edge">
<title>Node12&#45;&gt;Node18</title>
<g id="a_edge24_Node000012_Node000018"><a xlink:title=" ">
<path fill="none" stroke="#63b8ff" d="M374.5,-274.75C374.5,-267.8 374.5,-257.85 374.5,-249.13"/>
<polygon fill="#63b8ff" stroke="#63b8ff" points="378,-249.09 374.5,-239.09 371,-249.09 378,-249.09"/>
</a>
</g>
</g>
<!-- Node13&#45;&gt;Node7 -->
<g id="edge17_Node000013_Node000007" class="edge">
<title>Node13&#45;&gt;Node7</title>
<g id="a_edge17_Node000013_Node000007"><a xlink:title=" ">
<path fill="none" stroke="#63b8ff" d="M395.5,-164.66C395.5,-147.17 395.5,-107.8 395.5,-84.27"/>
<polygon fill="#63b8ff" stroke="#63b8ff" points="399,-84.16 395.5,-74.16 392,-84.16 399,-84.16"/>
</a>
</g>
</g>
<!-- Node14 -->
<g id="Node000014" class="node">
<title>Node14</title>
<g id="a_Node000014"><a xlink:href="attributes_8h.html" target="_top" xlink:title=" ">
<polygon fill="white" stroke="#666666" points="268,-129 195,-129 195,-110 268,-110 268,-129"/>
<text text-anchor="middle" x="231.5" y="-117" font-family="Helvetica,sans-Serif" font-size="10.00">attributes.h</text>
</a>
</g>
</g>
<!-- Node13&#45;&gt;Node14 -->
<g id="edge18_Node000013_Node000014" class="edge">
<title>Node13&#45;&gt;Node14</title>
<g id="a_edge18_Node000013_Node000014"><a xlink:title=" ">
<path fill="none" stroke="#63b8ff" d="M369.15,-164.98C341.74,-156.13 298.61,-142.19 267.94,-132.28"/>
<polygon fill="#63b8ff" stroke="#63b8ff" points="268.65,-128.83 258.06,-129.08 266.5,-135.49 268.65,-128.83"/>
</a>
</g>
</g>
<!-- Node14&#45;&gt;Node7 -->
<g id="edge20_Node000014_Node000007" class="edge">
<title>Node14&#45;&gt;Node7</title>
<g id="a_edge20_Node000014_Node000007"><a xlink:title=" ">
<path fill="none" stroke="#63b8ff" d="M257.85,-109.98C285.26,-101.13 328.39,-87.19 359.06,-77.28"/>
<polygon fill="#63b8ff" stroke="#63b8ff" points="360.5,-80.49 368.94,-74.08 358.35,-73.83 360.5,-80.49"/>
</a>
</g>
</g>
<!-- Node15 -->
<g id="Node000015" class="node">
<title>Node15</title>
<g id="a_Node000015"><a xlink:title=" ">
<polygon fill="#e0e0e0" stroke="#999999" points="252.5,-74 198.5,-74 198.5,-55 252.5,-55 252.5,-74"/>
<text text-anchor="middle" x="225.5" y="-62" font-family="Helvetica,sans-Serif" font-size="10.00">wchar.h</text>
</a>
</g>
</g>
<!-- Node14&#45;&gt;Node15 -->
<g id="edge19_Node000014_Node000015" class="edge">
<title>Node14&#45;&gt;Node15</title>
<g id="a_edge19_Node000014_Node000015"><a xlink:title=" ">
<path fill="none" stroke="#63b8ff" d="M230.51,-109.75C229.72,-102.8 228.6,-92.85 227.61,-84.13"/>
<polygon fill="#63b8ff" stroke="#63b8ff" points="231.08,-83.63 226.47,-74.09 224.12,-84.42 231.08,-83.63"/>
</a>
</g>
</g>
<!-- Node16 -->
<g id="Node000016" class="node">
<title>Node16</title>
<g id="a_Node000016"><a xlink:href="stackmap_8h.html" target="_top" xlink:title=" ">
<polygon fill="white" stroke="#666666" points="344.5,-74 270.5,-74 270.5,-55 344.5,-55 344.5,-74"/>
<text text-anchor="middle" x="307.5" y="-62" font-family="Helvetica,sans-Serif" font-size="10.00">stackmap.h</text>
</a>
</g>
</g>
<!-- Node14&#45;&gt;Node16 -->
<g id="edge21_Node000014_Node000016" class="edge">
<title>Node14&#45;&gt;Node16</title>
<g id="a_edge21_Node000014_Node000016"><a xlink:title=" ">
<path fill="none" stroke="#63b8ff" d="M243.71,-109.98C255.28,-101.92 272.88,-89.65 286.66,-80.03"/>
<polygon fill="#63b8ff" stroke="#63b8ff" points="288.87,-82.76 295.07,-74.17 284.86,-77.02 288.87,-82.76"/>
</a>
</g>
</g>
<!-- Node17 -->
<g id="Node000017" class="node">
<title>Node17</title>
<g id="a_Node000017"><a xlink:href="annotation_8h.html" target="_top" xlink:title=" ">
<polygon fill="white" stroke="#666666" points="180.5,-74 102.5,-74 102.5,-55 180.5,-55 180.5,-74"/>
<text text-anchor="middle" x="141.5" y="-62" font-family="Helvetica,sans-Serif" font-size="10.00">annotation.h</text>
</a>
</g>
</g>
<!-- Node14&#45;&gt;Node17 -->
<g id="edge22_Node000014_Node000017" class="edge">
<title>Node14&#45;&gt;Node17</title>
<g id="a_edge22_Node000014_Node000017"><a xlink:title=" ">
<path fill="none" stroke="#63b8ff" d="M217.04,-109.98C203.08,-101.77 181.71,-89.18 165.25,-79.49"/>
<polygon fill="#63b8ff" stroke="#63b8ff" points="166.62,-76.23 156.22,-74.17 163.06,-82.26 166.62,-76.23"/>
</a>
</g>
</g>
<!-- Node18&#45;&gt;Node3 -->
<g id="edge26_Node000018_Node000003" class="edge">
<title>Node18&#45;&gt;Node3</title>
<g id="a_edge26_Node000018_Node000003"><a xlink:title=" ">
<path fill="none" stroke="#63b8ff" d="M350.75,-222.21C347.64,-221.44 344.5,-220.68 341.5,-220 261.1,-201.71 240.35,-200.18 159.5,-184 157.31,-183.56 155.05,-183.11 152.77,-182.65"/>
<polygon fill="#63b8ff" stroke="#63b8ff" points="153.31,-179.19 142.82,-180.64 151.93,-186.05 153.31,-179.19"/>
</a>
</g>
</g>
<!-- Node18&#45;&gt;Node4 -->
<g id="edge25_Node000018_Node000004" class="edge">
<title>Node18&#45;&gt;Node4</title>
<g id="a_edge25_Node000018_Node000004"><a xlink:title=" ">
<path fill="none" stroke="#63b8ff" d="M350.73,-221.46C320.44,-212.49 267.75,-196.89 232.26,-186.38"/>
<polygon fill="#63b8ff" stroke="#63b8ff" points="232.87,-182.92 222.29,-183.43 230.89,-189.63 232.87,-182.92"/>
</a>
</g>
</g>
<!-- Node18&#45;&gt;Node7 -->
<g id="edge28_Node000018_Node000007" class="edge">
<title>Node18&#45;&gt;Node7</title>
<g id="a_edge28_Node000018_Node000007"><a xlink:title=" ">
<path fill="none" stroke="#63b8ff" d="M368.92,-219.72C363.76,-211.03 356.45,-197.17 353.5,-184 351.65,-175.76 351.82,-173.28 353.5,-165 359.61,-134.8 375.19,-102.36 385.56,-83.01"/>
<polygon fill="#63b8ff" stroke="#63b8ff" points="388.67,-84.62 390.43,-74.17 382.54,-81.24 388.67,-84.62"/>
</a>
</g>
</g>
<!-- Node18&#45;&gt;Node10 -->
<g id="edge27_Node000018_Node000010" class="edge">
<title>Node18&#45;&gt;Node10</title>
<g id="a_edge27_Node000018_Node000010"><a xlink:title=" ">
<path fill="none" stroke="#63b8ff" d="M390.41,-219.98C406.05,-211.61 430.16,-198.7 448.38,-188.95"/>
<polygon fill="#63b8ff" stroke="#63b8ff" points="450.14,-191.98 457.3,-184.17 446.84,-185.8 450.14,-191.98"/>
</a>
</g>
</g>
<!-- Node18&#45;&gt;Node13 -->
<g id="edge30_Node000018_Node000013" class="edge">
<title>Node18&#45;&gt;Node13</title>
<g id="a_edge30_Node000018_Node000013"><a xlink:title=" ">
<path fill="none" stroke="#63b8ff" d="M377.97,-219.75C380.78,-212.65 384.84,-202.4 388.35,-193.56"/>
<polygon fill="#63b8ff" stroke="#63b8ff" points="391.67,-194.68 392.1,-184.09 385.16,-192.1 391.67,-194.68"/>
</a>
</g>
</g>
<!-- Node18&#45;&gt;Node14 -->
<g id="edge29_Node000018_Node000014" class="edge">
<title>Node18&#45;&gt;Node14</title>
<g id="a_edge29_Node000018_Node000014"><a xlink:title=" ">
<path fill="none" stroke="#63b8ff" d="M362.8,-219.66C338.27,-201.14 281.25,-158.08 251.06,-135.28"/>
<polygon fill="#63b8ff" stroke="#63b8ff" points="253.05,-132.39 242.96,-129.16 248.83,-137.98 253.05,-132.39"/>
</a>
</g>
</g>
</g>
</svg>
