<?xml version="1.0" encoding="UTF-8" standalone="no"?>
<!DOCTYPE svg PUBLIC "-//W3C//DTD SVG 1.1//EN"
 "http://www.w3.org/Graphics/SVG/1.1/DTD/svg11.dtd">
<!-- Generated by graphviz version 2.43.0 (0)
 -->
<!-- Title: src/reader.c Pages: 1 -->
<svg width="676pt" height="412pt"
 viewBox="0.00 0.00 676.00 412.00" xmlns="http://www.w3.org/2000/svg" xmlns:xlink="http://www.w3.org/1999/xlink">
<g id="graph0" class="graph" transform="scale(1 1) rotate(0) translate(4 408)">
<title>src/reader.c</title>
<!-- Node1 -->
<g id="Node000001" class="node">
<title>Node1</title>
<g id="a_Node000001"><a xlink:title="Implementação das funções de leitura de arquivos .class e utilitários de leitura.">
<polygon fill="#999999" stroke="#666666" points="408.5,-404 335.5,-404 335.5,-385 408.5,-385 408.5,-404"/>
<text text-anchor="middle" x="372" y="-392" font-family="Helvetica,sans-Serif" font-size="10.00">src/reader.c</text>
</a>
</g>
</g>
<!-- Node2 -->
<g id="Node000002" class="node">
<title>Node2</title>
<g id="a_Node000002"><a xlink:href="reader_8h.html" target="_top" xlink:title="Funções de leitura de arquivos .class e utilitários de leitura de inteiros.">
<polygon fill="white" stroke="#666666" points="400,-349 344,-349 344,-330 400,-330 400,-349"/>
<text text-anchor="middle" x="372" y="-337" font-family="Helvetica,sans-Serif" font-size="10.00">reader.h</text>
</a>
</g>
</g>
<!-- Node1&#45;&gt;Node2 -->
<g id="edge1_Node000001_Node000002" class="edge">
<title>Node1&#45;&gt;Node2</title>
<g id="a_edge1_Node000001_Node000002"><a xlink:title=" ">
<path fill="none" stroke="#63b8ff" d="M372,-384.75C372,-377.8 372,-367.85 372,-359.13"/>
<polygon fill="#63b8ff" stroke="#63b8ff" points="375.5,-359.09 372,-349.09 368.5,-359.09 375.5,-359.09"/>
</a>
</g>
</g>
<!-- Node3 -->
<g id="Node000003" class="node">
<title>Node3</title>
<g id="a_Node000003"><a xlink:title=" ">
<polygon fill="#e0e0e0" stroke="#999999" points="50,-184 0,-184 0,-165 50,-165 50,-184"/>
<text text-anchor="middle" x="25" y="-172" font-family="Helvetica,sans-Serif" font-size="10.00">stdio.h</text>
</a>
</g>
</g>
<!-- Node2&#45;&gt;Node3 -->
<g id="edge2_Node000002_Node000003" class="edge">
<title>Node2&#45;&gt;Node3</title>
<g id="a_edge2_Node000002_Node000003"><a xlink:title=" ">
<path fill="none" stroke="#63b8ff" d="M343.75,-337.12C301.65,-334.08 220.88,-324.44 160,-294 108.38,-268.19 60.84,-217.76 38.46,-191.8"/>
<polygon fill="#63b8ff" stroke="#63b8ff" points="40.99,-189.38 31.86,-184.01 35.65,-193.9 40.99,-189.38"/>
</a>
</g>
</g>
<!-- Node4 -->
<g id="Node000004" class="node">
<title>Node4</title>
<g id="a_Node000004"><a xlink:title=" ">
<polygon fill="#e0e0e0" stroke="#999999" points="281.5,-184 228.5,-184 228.5,-165 281.5,-165 281.5,-184"/>
<text text-anchor="middle" x="255" y="-172" font-family="Helvetica,sans-Serif" font-size="10.00">stdlib.h</text>
</a>
</g>
</g>
<!-- Node2&#45;&gt;Node4 -->
<g id="edge3_Node000002_Node000004" class="edge">
<title>Node2&#45;&gt;Node4</title>
<g id="a_edge3_Node000002_Node000004"><a xlink:title=" ">
<path fill="none" stroke="#63b8ff" d="M343.89,-334.62C319.42,-329.66 285.1,-318.54 267,-294 245.39,-264.7 247.83,-219.66 251.46,-194.39"/>
<polygon fill="#63b8ff" stroke="#63b8ff" points="254.95,-194.73 253.13,-184.29 248.04,-193.59 254.95,-194.73"/>
</a>
</g>
</g>
<!-- Node5 -->
<g id="Node000005" class="node">
<title>Node5</title>
<g id="a_Node000005"><a xlink:title=" ">
<polygon fill="#e0e0e0" stroke="#999999" points="551.5,-184 498.5,-184 498.5,-165 551.5,-165 551.5,-184"/>
<text text-anchor="middle" x="525" y="-172" font-family="Helvetica,sans-Serif" font-size="10.00">string.h</text>
</a>
</g>
</g>
<!-- Node2&#45;&gt;Node5 -->
<g id="edge4_Node000002_Node000005" class="edge">
<title>Node2&#45;&gt;Node5</title>
<g id="a_edge4_Node000002_Node000005"><a xlink:title=" ">
<path fill="none" stroke="#63b8ff" d="M380.23,-329.74C404.72,-303.65 477.44,-226.17 509.51,-192"/>
<polygon fill="#63b8ff" stroke="#63b8ff" points="512.44,-193.99 516.73,-184.31 507.34,-189.2 512.44,-193.99"/>
</a>
</g>
</g>
<!-- Node6 -->
<g id="Node000006" class="node">
<title>Node6</title>
<g id="a_Node000006"><a xlink:title=" ">
<polygon fill="#e0e0e0" stroke="#999999" points="656,-294 608,-294 608,-275 656,-275 656,-294"/>
<text text-anchor="middle" x="632" y="-282" font-family="Helvetica,sans-Serif" font-size="10.00">time.h</text>
</a>
</g>
</g>
<!-- Node2&#45;&gt;Node6 -->
<g id="edge5_Node000002_Node000006" class="edge">
<title>Node2&#45;&gt;Node6</title>
<g id="a_edge5_Node000002_Node000006"><a xlink:title=" ">
<path fill="none" stroke="#63b8ff" d="M400.08,-333.08C442.24,-324.89 524.4,-308.76 594,-294 595.26,-293.73 596.55,-293.46 597.85,-293.18"/>
<polygon fill="#63b8ff" stroke="#63b8ff" points="598.88,-296.54 607.89,-290.98 597.38,-289.7 598.88,-296.54"/>
</a>
</g>
</g>
<!-- Node7 -->
<g id="Node000007" class="node">
<title>Node7</title>
<g id="a_Node000007"><a xlink:href="Classfile_8h.html" target="_top" xlink:title="Estruturas e funções para representar e liberar um arquivo .class Java (ClassFile).">
<polygon fill="white" stroke="#666666" points="343.5,-294 276.5,-294 276.5,-275 343.5,-275 343.5,-294"/>
<text text-anchor="middle" x="310" y="-282" font-family="Helvetica,sans-Serif" font-size="10.00">Classfile.h</text>
</a>
</g>
</g>
<!-- Node2&#45;&gt;Node7 -->
<g id="edge6_Node000002_Node000007" class="edge">
<title>Node2&#45;&gt;Node7</title>
<g id="a_edge6_Node000002_Node000007"><a xlink:title=" ">
<path fill="none" stroke="#63b8ff" d="M362.04,-329.98C352.87,-322.15 339.06,-310.34 327.97,-300.86"/>
<polygon fill="#63b8ff" stroke="#63b8ff" points="330.02,-298.01 320.14,-294.17 325.47,-303.33 330.02,-298.01"/>
</a>
</g>
</g>
<!-- Node8 -->
<g id="Node000008" class="node">
<title>Node8</title>
<g id="a_Node000008"><a xlink:href="uinteger_8h.html" target="_top" xlink:title=" ">
<polygon fill="white" stroke="#666666" points="390.5,-74 325.5,-74 325.5,-55 390.5,-55 390.5,-74"/>
<text text-anchor="middle" x="358" y="-62" font-family="Helvetica,sans-Serif" font-size="10.00">uinteger.h</text>
</a>
</g>
</g>
<!-- Node2&#45;&gt;Node8 -->
<g id="edge32_Node000002_Node000008" class="edge">
<title>Node2&#45;&gt;Node8</title>
<g id="a_edge32_Node000002_Node000008"><a xlink:title=" ">
<path fill="none" stroke="#63b8ff" d="M396.82,-329.98C458.32,-307.44 609.43,-242.67 561,-165 551.03,-149.01 441.78,-101.01 387.81,-78.03"/>
<polygon fill="#63b8ff" stroke="#63b8ff" points="388.99,-74.73 378.41,-74.05 386.25,-81.17 388.99,-74.73"/>
</a>
</g>
</g>
<!-- Node10 -->
<g id="Node000010" class="node">
<title>Node10</title>
<g id="a_Node000010"><a xlink:href="member_8h.html" target="_top" xlink:title=" ">
<polygon fill="white" stroke="#666666" points="480,-184 414,-184 414,-165 480,-165 480,-184"/>
<text text-anchor="middle" x="447" y="-172" font-family="Helvetica,sans-Serif" font-size="10.00">member.h</text>
</a>
</g>
</g>
<!-- Node2&#45;&gt;Node10 -->
<g id="edge33_Node000002_Node000010" class="edge">
<title>Node2&#45;&gt;Node10</title>
<g id="a_edge33_Node000002_Node000010"><a xlink:title=" ">
<path fill="none" stroke="#63b8ff" d="M375.95,-329.99C383.93,-312.8 402.51,-272.72 418,-239 425.04,-223.69 432.99,-206.27 438.78,-193.56"/>
<polygon fill="#63b8ff" stroke="#63b8ff" points="442.11,-194.68 443.07,-184.13 435.74,-191.78 442.11,-194.68"/>
</a>
</g>
</g>
<!-- Node16 -->
<g id="Node000016" class="node">
<title>Node16</title>
<g id="a_Node000016"><a xlink:href="utils_8h.html" target="_top" xlink:title="Funções auxiliares para manipulação de inteiros, flags, nomes de atributos e descritores utilizados n...">
<polygon fill="white" stroke="#666666" points="385.5,-239 338.5,-239 338.5,-220 385.5,-220 385.5,-239"/>
<text text-anchor="middle" x="362" y="-227" font-family="Helvetica,sans-Serif" font-size="10.00">utils.h</text>
</a>
</g>
</g>
<!-- Node2&#45;&gt;Node16 -->
<g id="edge26_Node000002_Node000016" class="edge">
<title>Node2&#45;&gt;Node16</title>
<g id="a_edge26_Node000002_Node000016"><a xlink:title=" ">
<path fill="none" stroke="#63b8ff" d="M371.18,-329.66C369.56,-312.17 365.92,-272.8 363.74,-249.27"/>
<polygon fill="#63b8ff" stroke="#63b8ff" points="367.21,-248.79 362.8,-239.16 360.24,-249.44 367.21,-248.79"/>
</a>
</g>
</g>
<!-- Node17 -->
<g id="Node000017" class="node">
<title>Node17</title>
<g id="a_Node000017"><a xlink:href="parser_8h.html" target="_top" xlink:title="Prototótipos para o parser do constant pool e utilitários de decodificação.">
<polygon fill="white" stroke="#666666" points="168,-239 112,-239 112,-220 168,-220 168,-239"/>
<text text-anchor="middle" x="140" y="-227" font-family="Helvetica,sans-Serif" font-size="10.00">parser.h</text>
</a>
</g>
</g>
<!-- Node2&#45;&gt;Node17 -->
<g id="edge27_Node000002_Node000017" class="edge">
<title>Node2&#45;&gt;Node17</title>
<g id="a_edge27_Node000002_Node000017"><a xlink:title=" ">
<path fill="none" stroke="#63b8ff" d="M343.95,-338.24C304.42,-336.56 231.63,-328.56 182,-294 165.94,-282.82 154.41,-263.33 147.54,-248.88"/>
<polygon fill="#63b8ff" stroke="#63b8ff" points="150.61,-247.17 143.36,-239.45 144.21,-250.01 150.61,-247.17"/>
</a>
</g>
</g>
<!-- Node7&#45;&gt;Node4 -->
<g id="edge7_Node000007_Node000004" class="edge">
<title>Node7&#45;&gt;Node4</title>
<g id="a_edge7_Node000007_Node000004"><a xlink:title=" ">
<path fill="none" stroke="#63b8ff" d="M305.5,-274.66C296.47,-256.93 276,-216.73 264.07,-193.32"/>
<polygon fill="#63b8ff" stroke="#63b8ff" points="267.07,-191.48 259.41,-184.16 260.83,-194.66 267.07,-191.48"/>
</a>
</g>
</g>
<!-- Node7&#45;&gt;Node8 -->
<g id="edge8_Node000007_Node000008" class="edge">
<title>Node7&#45;&gt;Node8</title>
<g id="a_edge8_Node000007_Node000008"><a xlink:title=" ">
<path fill="none" stroke="#63b8ff" d="M311.88,-274.95C318.94,-242.88 343.97,-129.2 353.9,-84.12"/>
<polygon fill="#63b8ff" stroke="#63b8ff" points="357.35,-84.74 356.08,-74.22 350.51,-83.24 357.35,-84.74"/>
</a>
</g>
</g>
<!-- Node7&#45;&gt;Node10 -->
<g id="edge10_Node000007_Node000010" class="edge">
<title>Node7&#45;&gt;Node10</title>
<g id="a_edge10_Node000007_Node000010"><a xlink:title=" ">
<path fill="none" stroke="#63b8ff" d="M331.39,-274.95C349.24,-267.19 374.77,-254.59 394,-239 410.49,-225.63 425.62,-206.52 435.45,-192.76"/>
<polygon fill="#63b8ff" stroke="#63b8ff" points="438.54,-194.44 441.36,-184.22 432.79,-190.45 438.54,-194.44"/>
</a>
</g>
</g>
<!-- Node15 -->
<g id="Node000015" class="node">
<title>Node15</title>
<g id="a_Node000015"><a xlink:href="constants_8h.html" target="_top" xlink:title=" ">
<polygon fill="white" stroke="#666666" points="210.5,-184 137.5,-184 137.5,-165 210.5,-165 210.5,-184"/>
<text text-anchor="middle" x="174" y="-172" font-family="Helvetica,sans-Serif" font-size="10.00">constants.h</text>
</a>
</g>
</g>
<!-- Node7&#45;&gt;Node15 -->
<g id="edge17_Node000007_Node000015" class="edge">
<title>Node7&#45;&gt;Node15</title>
<g id="a_edge17_Node000007_Node000015"><a xlink:title=" ">
<path fill="none" stroke="#63b8ff" d="M298.87,-274.66C275.64,-256.22 221.78,-213.45 192.98,-190.57"/>
<polygon fill="#63b8ff" stroke="#63b8ff" points="194.91,-187.64 184.9,-184.16 190.56,-193.12 194.91,-187.64"/>
</a>
</g>
</g>
<!-- Node7&#45;&gt;Node16 -->
<g id="edge19_Node000007_Node000016" class="edge">
<title>Node7&#45;&gt;Node16</title>
<g id="a_edge19_Node000007_Node000016"><a xlink:title=" ">
<path fill="none" stroke="#63b8ff" d="M318.59,-274.75C326.16,-267.03 337.38,-255.6 346.51,-246.28"/>
<polygon fill="#63b8ff" stroke="#63b8ff" points="349.07,-248.68 353.57,-239.09 344.07,-243.78 349.07,-248.68"/>
</a>
</g>
</g>
<!-- Node9 -->
<g id="Node000009" class="node">
<title>Node9</title>
<g id="a_Node000009"><a xlink:title=" ">
<polygon fill="#e0e0e0" stroke="#999999" points="384.5,-19 331.5,-19 331.5,0 384.5,0 384.5,-19"/>
<text text-anchor="middle" x="358" y="-7" font-family="Helvetica,sans-Serif" font-size="10.00">stdint.h</text>
</a>
</g>
</g>
<!-- Node8&#45;&gt;Node9 -->
<g id="edge9_Node000008_Node000009" class="edge">
<title>Node8&#45;&gt;Node9</title>
<g id="a_edge9_Node000008_Node000009"><a xlink:title=" ">
<path fill="none" stroke="#63b8ff" d="M358,-54.75C358,-47.8 358,-37.85 358,-29.13"/>
<polygon fill="#63b8ff" stroke="#63b8ff" points="361.5,-29.09 358,-19.09 354.5,-29.09 361.5,-29.09"/>
</a>
</g>
</g>
<!-- Node10&#45;&gt;Node8 -->
<g id="edge11_Node000010_Node000008" class="edge">
<title>Node10&#45;&gt;Node8</title>
<g id="a_edge11_Node000010_Node000008"><a xlink:title=" ">
<path fill="none" stroke="#63b8ff" d="M439.72,-164.66C424.84,-146.61 390.78,-105.28 371.66,-82.08"/>
<polygon fill="#63b8ff" stroke="#63b8ff" points="374.2,-79.65 365.14,-74.16 368.79,-84.1 374.2,-79.65"/>
</a>
</g>
</g>
<!-- Node11 -->
<g id="Node000011" class="node">
<title>Node11</title>
<g id="a_Node000011"><a xlink:href="attributes_8h.html" target="_top" xlink:title=" ">
<polygon fill="white" stroke="#666666" points="593.5,-129 520.5,-129 520.5,-110 593.5,-110 593.5,-129"/>
<text text-anchor="middle" x="557" y="-117" font-family="Helvetica,sans-Serif" font-size="10.00">attributes.h</text>
</a>
</g>
</g>
<!-- Node10&#45;&gt;Node11 -->
<g id="edge12_Node000010_Node000011" class="edge">
<title>Node10&#45;&gt;Node11</title>
<g id="a_edge12_Node000010_Node000011"><a xlink:title=" ">
<path fill="none" stroke="#63b8ff" d="M464.67,-164.98C482.29,-156.5 509.58,-143.35 529.93,-133.54"/>
<polygon fill="#63b8ff" stroke="#63b8ff" points="531.52,-136.66 539.01,-129.17 528.48,-130.36 531.52,-136.66"/>
</a>
</g>
</g>
<!-- Node11&#45;&gt;Node8 -->
<g id="edge14_Node000011_Node000008" class="edge">
<title>Node11&#45;&gt;Node8</title>
<g id="a_edge14_Node000011_Node000008"><a xlink:title=" ">
<path fill="none" stroke="#63b8ff" d="M525.03,-109.98C491.18,-100.97 437.6,-86.7 400.29,-76.76"/>
<polygon fill="#63b8ff" stroke="#63b8ff" points="400.79,-73.27 390.22,-74.08 398.99,-80.04 400.79,-73.27"/>
</a>
</g>
</g>
<!-- Node12 -->
<g id="Node000012" class="node">
<title>Node12</title>
<g id="a_Node000012"><a xlink:title=" ">
<polygon fill="#e0e0e0" stroke="#999999" points="668,-74 614,-74 614,-55 668,-55 668,-74"/>
<text text-anchor="middle" x="641" y="-62" font-family="Helvetica,sans-Serif" font-size="10.00">wchar.h</text>
</a>
</g>
</g>
<!-- Node11&#45;&gt;Node12 -->
<g id="edge13_Node000011_Node000012" class="edge">
<title>Node11&#45;&gt;Node12</title>
<g id="a_edge13_Node000011_Node000012"><a xlink:title=" ">
<path fill="none" stroke="#63b8ff" d="M570.5,-109.98C583.4,-101.84 603.1,-89.41 618.4,-79.76"/>
<polygon fill="#63b8ff" stroke="#63b8ff" points="620.67,-82.47 627.26,-74.17 616.93,-76.55 620.67,-82.47"/>
</a>
</g>
</g>
<!-- Node13 -->
<g id="Node000013" class="node">
<title>Node13</title>
<g id="a_Node000013"><a xlink:href="stackmap_8h.html" target="_top" xlink:title=" ">
<polygon fill="white" stroke="#666666" points="500,-74 426,-74 426,-55 500,-55 500,-74"/>
<text text-anchor="middle" x="463" y="-62" font-family="Helvetica,sans-Serif" font-size="10.00">stackmap.h</text>
</a>
</g>
</g>
<!-- Node11&#45;&gt;Node13 -->
<g id="edge15_Node000011_Node000013" class="edge">
<title>Node11&#45;&gt;Node13</title>
<g id="a_edge15_Node000011_Node000013"><a xlink:title=" ">
<path fill="none" stroke="#63b8ff" d="M541.9,-109.98C527.18,-101.69 504.58,-88.94 487.33,-79.22"/>
<polygon fill="#63b8ff" stroke="#63b8ff" points="488.81,-76.03 478.38,-74.17 485.37,-82.13 488.81,-76.03"/>
</a>
</g>
</g>
<!-- Node14 -->
<g id="Node000014" class="node">
<title>Node14</title>
<g id="a_Node000014"><a xlink:href="annotation_8h.html" target="_top" xlink:title=" ">
<polygon fill="white" stroke="#666666" points="596,-74 518,-74 518,-55 596,-55 596,-74"/>
<text text-anchor="middle" x="557" y="-62" font-family="Helvetica,sans-Serif" font-size="10.00">annotation.h</text>
</a>
</g>
</g>
<!-- Node11&#45;&gt;Node14 -->
<g id="edge16_Node000011_Node000014" class="edge">
<title>Node11&#45;&gt;Node14</title>
<g id="a_edge16_Node000011_Node000014"><a xlink:title=" ">
<path fill="none" stroke="#63b8ff" d="M557,-109.75C557,-102.8 557,-92.85 557,-84.13"/>
<polygon fill="#63b8ff" stroke="#63b8ff" points="560.5,-84.09 557,-74.09 553.5,-84.09 560.5,-84.09"/>
</a>
</g>
</g>
<!-- Node15&#45;&gt;Node8 -->
<g id="edge18_Node000015_Node000008" class="edge">
<title>Node15&#45;&gt;Node8</title>
<g id="a_edge18_Node000015_Node000008"><a xlink:title=" ">
<path fill="none" stroke="#63b8ff" d="M188.75,-164.84C220.59,-146.16 295.99,-101.9 334.49,-79.3"/>
<polygon fill="#63b8ff" stroke="#63b8ff" points="336.59,-82.13 343.44,-74.05 333.04,-76.09 336.59,-82.13"/>
</a>
</g>
</g>
<!-- Node16&#45;&gt;Node3 -->
<g id="edge21_Node000016_Node000003" class="edge">
<title>Node16&#45;&gt;Node3</title>
<g id="a_edge21_Node000016_Node000003"><a xlink:title=" ">
<path fill="none" stroke="#63b8ff" d="M338.29,-225.83C288.55,-220.06 169.52,-205.34 60.07,-184.04"/>
<polygon fill="#63b8ff" stroke="#63b8ff" points="60.68,-180.59 50.19,-182.09 59.32,-187.46 60.68,-180.59"/>
</a>
</g>
</g>
<!-- Node16&#45;&gt;Node4 -->
<g id="edge20_Node000016_Node000004" class="edge">
<title>Node16&#45;&gt;Node4</title>
<g id="a_edge20_Node000016_Node000004"><a xlink:title=" ">
<path fill="none" stroke="#63b8ff" d="M344.81,-219.98C327.75,-211.54 301.37,-198.47 281.6,-188.68"/>
<polygon fill="#63b8ff" stroke="#63b8ff" points="283.02,-185.47 272.5,-184.17 279.91,-191.75 283.02,-185.47"/>
</a>
</g>
</g>
<!-- Node16&#45;&gt;Node5 -->
<g id="edge22_Node000016_Node000005" class="edge">
<title>Node16&#45;&gt;Node5</title>
<g id="a_edge22_Node000016_Node000005"><a xlink:title=" ">
<path fill="none" stroke="#63b8ff" d="M385.7,-220.79C412.87,-211.96 457.69,-197.38 489.14,-187.16"/>
<polygon fill="#63b8ff" stroke="#63b8ff" points="490.41,-190.43 498.84,-184.01 488.25,-183.77 490.41,-190.43"/>
</a>
</g>
</g>
<!-- Node16&#45;&gt;Node8 -->
<g id="edge23_Node000016_Node000008" class="edge">
<title>Node16&#45;&gt;Node8</title>
<g id="a_edge23_Node000016_Node000008"><a xlink:title=" ">
<path fill="none" stroke="#63b8ff" d="M361.78,-219.74C361.16,-194.31 359.34,-120.08 358.47,-84.69"/>
<polygon fill="#63b8ff" stroke="#63b8ff" points="361.96,-84.22 358.22,-74.31 354.96,-84.39 361.96,-84.22"/>
</a>
</g>
</g>
<!-- Node16&#45;&gt;Node10 -->
<g id="edge25_Node000016_Node000010" class="edge">
<title>Node16&#45;&gt;Node10</title>
<g id="a_edge25_Node000016_Node000010"><a xlink:title=" ">
<path fill="none" stroke="#63b8ff" d="M375.66,-219.98C388.84,-211.77 409.03,-199.18 424.57,-189.49"/>
<polygon fill="#63b8ff" stroke="#63b8ff" points="426.46,-192.43 433.09,-184.17 422.76,-186.49 426.46,-192.43"/>
</a>
</g>
</g>
<!-- Node16&#45;&gt;Node11 -->
<g id="edge24_Node000016_Node000011" class="edge">
<title>Node16&#45;&gt;Node11</title>
<g id="a_edge24_Node000016_Node000011"><a xlink:title=" ">
<path fill="none" stroke="#63b8ff" d="M365.59,-219.68C371.65,-205.92 385.21,-179.44 405,-165 435.97,-142.41 478.29,-131.23 510.41,-125.73"/>
<polygon fill="#63b8ff" stroke="#63b8ff" points="511.12,-129.16 520.45,-124.13 510.03,-122.24 511.12,-129.16"/>
</a>
</g>
</g>
<!-- Node17&#45;&gt;Node3 -->
<g id="edge28_Node000017_Node000003" class="edge">
<title>Node17&#45;&gt;Node3</title>
<g id="a_edge28_Node000017_Node000003"><a xlink:title=" ">
<path fill="none" stroke="#63b8ff" d="M121.52,-219.98C103.02,-211.46 74.32,-198.23 53.02,-188.41"/>
<polygon fill="#63b8ff" stroke="#63b8ff" points="54.36,-185.18 43.81,-184.17 51.43,-191.53 54.36,-185.18"/>
</a>
</g>
</g>
<!-- Node17&#45;&gt;Node4 -->
<g id="edge29_Node000017_Node000004" class="edge">
<title>Node17&#45;&gt;Node4</title>
<g id="a_edge29_Node000017_Node000004"><a xlink:title=" ">
<path fill="none" stroke="#63b8ff" d="M158.48,-219.98C176.98,-211.46 205.68,-198.23 226.98,-188.41"/>
<polygon fill="#63b8ff" stroke="#63b8ff" points="228.57,-191.53 236.19,-184.17 225.64,-185.18 228.57,-191.53"/>
</a>
</g>
</g>
<!-- Node17&#45;&gt;Node15 -->
<g id="edge31_Node000017_Node000015" class="edge">
<title>Node17&#45;&gt;Node15</title>
<g id="a_edge31_Node000017_Node000015"><a xlink:title=" ">
<path fill="none" stroke="#63b8ff" d="M145.61,-219.75C150.32,-212.42 157.17,-201.73 162.97,-192.7"/>
<polygon fill="#63b8ff" stroke="#63b8ff" points="166.04,-194.4 168.49,-184.09 160.14,-190.62 166.04,-194.4"/>
</a>
</g>
</g>
<!-- Node18 -->
<g id="Node000018" class="node">
<title>Node18</title>
<g id="a_Node000018"><a xlink:title=" ">
<polygon fill="#e0e0e0" stroke="#999999" points="119.5,-184 68.5,-184 68.5,-165 119.5,-165 119.5,-184"/>
<text text-anchor="middle" x="94" y="-172" font-family="Helvetica,sans-Serif" font-size="10.00">math.h</text>
</a>
</g>
</g>
<!-- Node17&#45;&gt;Node18 -->
<g id="edge30_Node000017_Node000018" class="edge">
<title>Node17&#45;&gt;Node18</title>
<g id="a_edge30_Node000017_Node000018"><a xlink:title=" ">
<path fill="none" stroke="#63b8ff" d="M132.4,-219.75C125.84,-212.18 116.18,-201.05 108.19,-191.84"/>
<polygon fill="#63b8ff" stroke="#63b8ff" points="110.65,-189.35 101.45,-184.09 105.37,-193.94 110.65,-189.35"/>
</a>
</g>
</g>
</g>
</svg>
